<?xml version="1.0" standalone="no"?>
<!DOCTYPE svg PUBLIC "-//W3C//DTD SVG 1.1//EN" "http://www.w3.org/Graphics/SVG/1.1/DTD/svg11.dtd" >
<svg xmlns="http://www.w3.org/2000/svg" xmlns:xlink="http://www.w3.org/1999/xlink" version="1.1">
<metadata></metadata>
<defs>
<font id="brixtonbook" horiz-adv-x="1064" >
<font-face units-per-em="2048" ascent="1536" descent="-512" />
<missing-glyph horiz-adv-x="434" />
<glyph unicode="&#xfb01;" horiz-adv-x="897" d="M66 879v147h120v150q0 162 86 241.5t226 79.5q68 0 119 -24.5t86.5 -64.5t57 -89t30.5 -96q-25 0 -40.5 -1t-35.5 -1h-72q-4 18 -12 41.5t-24.5 43t-42 34t-62.5 14.5q-45 0 -77 -14.5t-52.5 -39t-29.5 -57.5t-9 -67v-150h198v-147h-198v-879h-148v879h-120zM645 0v1024 h148v-1024h-148z" />
<glyph unicode="&#xfb02;" horiz-adv-x="983" d="M45 907v156h123v158q0 332 287 331q37 0 80 -14v-164q-16 6 -33 15q-14 4 -28.5 9t-24.5 5q-41 0 -66 -17.5t-37 -44t-15 -58.5t-3 -62v-158h207v-156h-207v-907h-160v907h-123zM643 289v1245h145v-1245q0 -23 9.5 -48.5t28 -48t46 -40t64.5 -23.5v-145 q-80 6 -135.5 34.5t-90 71.5t-51 95.5t-16.5 103.5z" />
<glyph unicode="&#xfb03;" horiz-adv-x="1306" d="M18 879v147h123v150q0 324 273 323q66 0 121 -41t92 -94l-113 -68q-29 33 -56.5 45.5t-62.5 12.5q-37 -4 -57.5 -21.5t-31.5 -43t-14 -55.5t-3 -58v-150h356v150q0 162 86 241.5t225 79.5q68 0 119 -24.5t88 -64.5t58.5 -89t27.5 -96q-25 0 -40 -1t-35 -1h-72 q-4 18 -12.5 41.5t-24.5 43t-42 34t-62 14.5q-45 0 -77 -14.5t-52.5 -39t-29.5 -57.5t-9 -67v-150h198v-147h-198v-879h-148v879h-356v-879h-148v879h-123zM1104 0v1024h147v-1024h-147z" />
<glyph horiz-adv-x="0" />
<glyph unicode="&#xd;" horiz-adv-x="434" />
<glyph unicode=" "  horiz-adv-x="434" />
<glyph unicode="&#x09;" horiz-adv-x="434" />
<glyph unicode="&#xa0;" horiz-adv-x="434" />
<glyph unicode="!" horiz-adv-x="389" d="M94 -23v187h195v-187h-195zM117 866v578h147v-578l-22 -274q-6 -68 -11.5 -133.5t-9.5 -132.5h-59q-6 88 -14.5 164.5t-14.5 160.5q-4 53 -8 107.5t-8 107.5z" />
<glyph unicode="&#x22;" horiz-adv-x="536" d="M63 1346l31 290h88q6 -72 14.5 -145.5t14.5 -144.5h-148zM63 1346l29 290h90q6 -72 14.5 -145.5t14.5 -144.5h-148zM307 1346l27 290h90l27 -290h-144zM307 1346l27 290h90l27 -290h-144z" />
<glyph unicode="#" horiz-adv-x="1705" d="M37 416v143h1102v-143h-1102zM37 938v145h1102v-145h-1102zM106 -23l347 1549h149l-342 -1549h-154zM586 -23q33 184 77 386t85 380q45 195 87 387.5t76 395.5h154l-346 -1549h-133z" />
<glyph unicode="$" horiz-adv-x="1083" d="M47 147v177q125 -80 251 -138.5t271 -58.5q166 0 244 68.5t78 179.5q0 53 -21.5 92t-60.5 70.5t-92 58.5t-115 55v-2l-24 15l-48 22l-49 23q-74 31 -142.5 63.5t-121.5 77.5t-85 106.5t-32 147.5q0 80 32 144.5t90.5 111.5t138 72.5t176.5 25.5q137 0 253.5 -32.5 t208.5 -79.5v-177q-117 70 -234.5 106t-227.5 36q-49 0 -100.5 -15.5t-93.5 -43t-68.5 -68.5t-26.5 -90q0 -57 23.5 -97.5t62.5 -68t88 -48t100 -38.5v2l33 -13q23 -10 44.5 -16t49.5 -20q59 -25 114.5 -51.5t108.5 -61.5q80 -51 129.5 -134t49.5 -175q0 -100 -44 -174 t-114 -121t-156 -70.5t-170 -25.5q-76 0 -141.5 8t-126.5 28.5t-122.5 51t-129.5 77.5zM485 -276v1968h123v-1968h-123z" />
<glyph unicode="%" horiz-adv-x="1435" d="M-31 1104q0 70 27 133t74 109.5t108.5 74t132.5 27.5q70 0 131.5 -27.5t108.5 -74t74.5 -109.5t27.5 -133q0 -72 -27.5 -133.5t-74.5 -108.5t-108.5 -73.5t-131.5 -26.5q-72 0 -133 26.5t-108 73.5t-74 108.5t-27 133.5zM70 1104q0 -49 18 -92t51 -76t77 -52.5t95 -19.5 q49 0 93.5 19.5t77 52.5t52 76t19.5 92q0 51 -19.5 95t-52 77t-77 52.5t-93.5 19.5q-51 0 -95 -19.5t-77 -52.5t-51 -77t-18 -95zM141 0q160 231 310.5 444t306.5 437l397 565h145q-113 -164 -225 -321.5t-225 -321.5q-141 -201 -279.5 -397.5t-281.5 -405.5h-148zM791 342 q0 70 27.5 132.5t73.5 110.5t108.5 75.5t132.5 27.5t132 -27.5t109 -75.5t75 -110.5t28 -132.5q0 -72 -28 -134.5t-75 -108.5t-109.5 -72.5t-131.5 -26.5q-70 0 -132.5 26.5t-108.5 72.5t-73.5 108.5t-27.5 134.5zM893 342q0 -49 19.5 -93t51 -77t76 -51.5t93.5 -18.5 q51 0 96 18.5t77.5 51.5t51 77t18.5 93t-18.5 93t-51 77t-77.5 52.5t-96 19.5q-49 0 -93.5 -19.5t-76 -52.5t-51 -77t-19.5 -93z" />
<glyph unicode="&#x26;" horiz-adv-x="1339" d="M90 322q0 72 28.5 134t78 117.5t113 102.5t132.5 88q-80 92 -123 187.5t-43 168.5q0 76 30 136.5t78 102.5t110.5 64.5t128.5 22.5q70 0 130 -24.5t105 -67.5t70.5 -101.5t25.5 -126.5q0 -59 -26.5 -113.5t-69.5 -103.5t-96 -94t-107 -82q27 -29 61 -69.5t56 -67.5 l143 -166q70 86 105 143.5t63 112.5q4 10 10.5 18.5t10.5 18.5h151q-51 -109 -113.5 -209t-133.5 -188l288 -326h-178l-203 229q-250 -240 -460 -239q-78 0 -144.5 25.5t-116 70.5t-77 105.5t-27.5 130.5zM229 322q0 -55 22.5 -93.5t55.5 -61t72 -32.5t72 -10q65 0 118 25 q45 20 110.5 64t143.5 118l-286 325l-72 -45q-51 -33 -94 -63.5t-75 -63t-49.5 -72.5t-17.5 -91zM416 1120q0 -121 143 -286q55 37 102.5 74.5t82 75.5t55 74t20.5 68q0 51 -21.5 86t-52 56.5t-64 31t-58.5 9.5q-23 0 -58 -8.5t-67.5 -30t-57 -57t-24.5 -93.5z" />
<glyph unicode="'" horiz-adv-x="389" d="M121 1346l31 290h86q6 -72 15 -145.5t15 -144.5h-147z" />
<glyph unicode="(" horiz-adv-x="507" d="M88 776q0 164 21.5 297t49 232.5t55.5 162t38 82.5h151q-47 -117 -84 -245q-33 -111 -58 -249t-25 -280q0 -141 19 -265t46 -224.5t56.5 -173t48.5 -113.5h-152q-47 113 -84 240q-31 109 -56.5 248t-25.5 288z" />
<glyph unicode=")" horiz-adv-x="512" d="M100 1550h150q47 -113 84 -239q31 -109 57.5 -248t26.5 -287q0 -164 -21.5 -297t-50.5 -232.5t-56.5 -163t-37.5 -83.5h-150q45 117 82 246q31 111 57.5 250t26.5 280q0 145 -19.5 270t-47 224.5t-55 170t-46.5 109.5z" />
<glyph unicode="*" horiz-adv-x="849" d="M135 1391q16 27 37 51t37 53l172 -129v219h125v-219l174 131l76 -108l-211 -140q92 -59 136 -89t73 -48q-20 -27 -37 -52.5t-37 -49.5l-168 131v-219h-123v219l-180 -131q-16 23 -35.5 53.5t-36.5 52.5l211 133q-49 33 -104.5 70t-108.5 72z" />
<glyph unicode="+" horiz-adv-x="827" d="M96 463v143h242v244h147v-244h246v-143h-246v-250h-147v250h-242z" />
<glyph unicode="," horiz-adv-x="229" d="M-55 -176l116 291h146q-23 -33 -38 -61.5t-34 -61.5q-25 -41 -48.5 -82t-47.5 -86h-94z" />
<glyph unicode="-" horiz-adv-x="753" d="M94 451v145h576v-145h-576z" />
<glyph unicode="." horiz-adv-x="278" d="M68 0v139h145v-139h-145z" />
<glyph unicode="/" horiz-adv-x="745" d="M72 -23l200 697l246 852h156q-59 -205 -117.5 -405.5t-118.5 -399.5q-53 -186 -106 -369.5t-109 -374.5h-151z" />
<glyph unicode="0" horiz-adv-x="1261" d="M63 723q0 156 40 289t114 231t179.5 153.5t236.5 55.5t237.5 -55.5t180 -153.5t113.5 -231t40 -289t-40 -289t-113.5 -231.5t-180 -153.5t-237.5 -55t-236.5 55t-179.5 153.5t-114 231.5t-40 289zM209 723q0 -125 29.5 -231.5t85 -185.5t134.5 -123t175 -44q98 0 176 44 t133 123t85 185.5t30 231.5t-30 231.5t-85 185.5t-133 123t-176 44q-96 0 -175 -44t-134.5 -123t-85 -185.5t-29.5 -231.5z" />
<glyph unicode="1" horiz-adv-x="401" d="M127 0v1442h147v-1442h-147z" />
<glyph unicode="2" horiz-adv-x="993" d="M20 0q207 221 349.5 386t230.5 288t127 211t39 153q0 70 -22.5 124.5t-58.5 91t-82 55t-93 18.5q-211 0 -264 -260h-142q14 98 55.5 172t97.5 123t124 73.5t135 24.5q86 0 159 -31.5t125 -88t81.5 -131t29.5 -160.5q0 -92 -44 -195.5t-121.5 -217.5t-182 -238 t-223.5 -259h608v-139h-928z" />
<glyph unicode="3" horiz-adv-x="942" d="M55 360h146q27 -100 101.5 -166.5t174.5 -66.5q59 0 111.5 21.5t90.5 60.5t60.5 91t22.5 112q0 57 -20.5 107t-56.5 89t-86 61.5t-112 26.5v138q53 2 96.5 22.5t73 54t46 76.5t16.5 92t-19.5 93.5t-52.5 77t-77 52t-93 19.5q-45 0 -85 -16.5t-72.5 -46t-54 -68.5 t-29.5 -84h-140q8 74 42 139.5t85 112.5t117 74.5t137 27.5q78 0 147.5 -29.5t122 -82t82 -121t29.5 -148.5q0 -74 -23.5 -130t-52.5 -97q-34 -47 -75 -80q53 -41 96 -94q35 -47 65.5 -113.5t30.5 -152.5t-34 -163t-91 -135.5t-134 -92t-163 -33.5q-80 0 -150.5 28.5 t-126 77.5t-93 118t-52.5 148z" />
<glyph unicode="4" horiz-adv-x="1042" d="M68 471q197 254 385 495.5t385 497.5v-858h163v-135h-163v-469h-138v469h-632zM338 606h362v463z" />
<glyph unicode="5" horiz-adv-x="983" d="M68 150l65 55q10 8 20.5 16t20.5 19q55 -55 126 -87t140 -32q72 0 135.5 26.5t110.5 73.5t73.5 109.5t26.5 134.5t-27.5 135.5t-74.5 110.5t-110.5 74.5t-133.5 27.5q-55 0 -126.5 -23.5t-137.5 -76.5q-16 12 -22.5 18t-16.5 17q-10 8 -20.5 19t-20.5 21v654h658v-137 h-518v-398q41 14 96 28.5t108 14.5q98 0 184.5 -36.5t157.5 -104.5q68 -70 106 -158t38 -186t-40 -186.5t-106.5 -154t-154.5 -104t-185 -38.5q-104 0 -199.5 40.5t-172.5 127.5z" />
<glyph unicode="6" horiz-adv-x="1052" d="M37 530q0 123 32.5 247t93 241t142.5 225.5t180 202.5l99 -96q-41 -39 -89.5 -92.5t-95.5 -119t-90 -141t-76 -161.5q78 61 160 91.5t142 30.5q96 0 184 -35.5t158 -105.5t106.5 -157t36.5 -185t-39 -187t-105.5 -154.5t-154.5 -104.5t-186 -39q-104 0 -195.5 42 t-159 115.5t-105.5 172t-38 210.5zM186 475q0 -72 28 -135.5t75 -110.5t110.5 -73.5t135.5 -26.5q74 0 137 26.5t110 73.5t74 110.5t27 135.5q0 74 -27 137.5t-74 110.5t-110.5 73.5t-136.5 26.5q-72 0 -135.5 -26.5t-110.5 -73.5t-75 -110.5t-28 -137.5z" />
<glyph unicode="7" horiz-adv-x="831" d="M10 1305v137h826l-633 -1465q-35 14 -63.5 27.5t-61.5 28.5l551 1272h-619z" />
<glyph unicode="8" horiz-adv-x="890" d="M20 412q0 98 48.5 190t146.5 170q-66 66 -110 147.5t-44 159.5t30 146.5t82 120t122 81t149 29.5q80 0 149 -29.5t121 -81t81.5 -120t29.5 -146.5q0 -82 -42 -162.5t-107 -144.5l45 -43l24 -20q59 -61 90 -137t31 -160q0 -88 -33.5 -166t-92 -135.5t-134.5 -90 t-162 -32.5q-88 0 -164.5 32.5t-134 90t-91.5 135.5t-34 166zM158 412q0 -61 22.5 -113.5t61.5 -90.5t91 -60.5t111 -22.5q57 0 109.5 22.5t91.5 60.5t61.5 90t22.5 114q0 57 -22.5 109t-61.5 90t-91 60.5t-110 22.5q-59 0 -111 -22.5t-91 -60.5t-61.5 -90t-22.5 -109z M205 1079q0 -53 18.5 -98t51 -78t76.5 -52.5t93 -19.5q51 0 96.5 19.5t78 52.5t51 78t18.5 98q0 49 -18.5 92t-51 76t-78 52.5t-96.5 19.5q-49 0 -93 -19.5t-76.5 -52.5t-51 -76t-18.5 -92zM745 709v2l3 -2h-3z" />
<glyph unicode="9" horiz-adv-x="1075" d="M51 975q0 98 39 186t106.5 153.5t155.5 104.5t187 39q104 0 194 -42t157.5 -115.5t105.5 -172t38 -210.5q0 -123 -32.5 -247t-92 -241t-142.5 -225.5t-181 -202.5l-99 96q41 39 89.5 92.5t95.5 119t91 141t77 161.5q-78 -61 -161 -92t-140 -31q-98 0 -186 36t-158 106 t-107 158t-37 186zM188 975q0 -74 28 -137.5t75 -110.5t110.5 -74.5t137.5 -27.5q72 0 135 26.5t109 74.5t74 111.5t28 137.5q0 72 -27 134t-74 109.5t-110 74t-135 26.5q-74 0 -137.5 -26.5t-110.5 -74t-75 -109.5t-28 -134z" />
<glyph unicode=":" horiz-adv-x="378" d="M127 0v139h149v-139h-149zM127 885v139h149v-139h-149zM127 885v139h149v-139h-149zM127 885v139h149v-139h-149z" />
<glyph unicode=";" horiz-adv-x="385" d="M10 -176l117 291h147q-23 -41 -43 -75t-41 -69q-23 -37 -42 -71.5t-42 -75.5h-96zM131 885v139h145v-139h-145z" />
<glyph unicode="&#x3c;" horiz-adv-x="1034" d="M70 629l897 477v-170l-580 -307q66 -35 144.5 -78t144.5 -78q74 -43 145.5 -81t145.5 -79v-157z" />
<glyph unicode="=" horiz-adv-x="1052" d="M94 354v148h871v-148h-871zM94 731v146h871v-146h-871z" />
<glyph unicode="&#x3e;" horiz-adv-x="1087" d="M100 156v161l580 312l-281 151l-55 31q-59 31 -121.5 64.5t-122.5 62.5v168l893 -477z" />
<glyph unicode="?" horiz-adv-x="905" d="M96 1319q70 57 156 91t172 34q80 0 151.5 -30t125 -82t85 -123.5t31.5 -155.5q0 -72 -26.5 -131.5t-71.5 -108.5t-106.5 -86t-129.5 -63v-281h-147v373q70 14 130 43.5t105 70.5t71 88.5t26 94.5q0 29 -8.5 71.5t-34 81.5t-73.5 66.5t-128 27.5q-78 0 -134.5 -26.5 t-101.5 -67.5q-25 31 -47 55.5t-45 57.5zM336 0v139h147v-139h-147z" />
<glyph unicode="@" horiz-adv-x="1175" d="M72 477q0 131 43 233.5t116.5 173t170 107.5t200.5 37q98 0 182 -31.5t146.5 -89t97.5 -134.5t35 -169q0 -82 -51 -175t-133 -177l213 -4q-82 -141 -206 -195.5t-276 -54.5q-131 0 -231 36t-169 99.5t-103.5 151.5t-34.5 192zM174 487q0 92 32 172t87 140.5t133 94.5 t170 34q70 0 147.5 -35t165.5 -94h-188l-14 -51q-41 29 -81 47t-71 18q-53 0 -103.5 -27.5t-90 -74.5t-64.5 -110.5t-25 -133.5q0 -53 15.5 -97t43 -78t64.5 -52.5t82 -18.5q29 0 63.5 13.5t80.5 46.5l36 -48q29 -14 78 -14q53 0 106.5 26.5t100.5 69.5l47 -41 q-23 -35 -46 -58t-40 -34l-69 -43q-47 -18 -101.5 -29.5t-120.5 -11.5q-205 0 -323 101q-55 51 -85 124.5t-30 163.5zM393 457q0 -57 28 -96t71 -39q71 -1 122 75q57 80 58 178q0 59 -31 98.5t-80 39.5q-35 0 -64.5 -22.5t-53 -58.5t-37 -82t-13.5 -93zM748 322 q27 6 63.5 32.5t70 64.5t56.5 87t23 102q0 100 -113 238l-94 -453z" />
<glyph unicode="A" horiz-adv-x="1290" d="M14 2q35 86 71 166t71 162q125 293 246.5 580.5t246.5 584.5l635 -1493h-154l-126 289h-713l-127 -289h-150zM350 434h592l-293 701q-31 -78 -69.5 -169.5t-73.5 -166.5q-16 -39 -36.5 -84t-41 -93.5t-40 -96.5t-38.5 -91z" />
<glyph unicode="B" horiz-adv-x="915" d="M49 0v1432h369q84 0 150.5 -33t113.5 -84t72.5 -114.5t25.5 -127.5q0 -70 -25.5 -121t-54.5 -86q-37 -41 -79 -71q74 -39 131 -95q49 -47 90 -117.5t41 -168.5q0 -102 -37 -179t-96.5 -129.5t-133 -79t-145.5 -26.5h-422zM190 141h281q61 0 109.5 24.5t83 64.5t53 89.5 t18.5 96.5q0 59 -22.5 112.5t-60.5 93.5t-87 63.5t-100 23.5h-275v-568zM190 842h240q31 0 68 14t69.5 43t55 72t22.5 98q0 43 -16.5 84t-46 72.5t-71.5 50t-91 18.5h-230v-452z" />
<glyph unicode="C" horiz-adv-x="1308" d="M49 729q0 147 56.5 277.5t153.5 226.5t226 152.5t277 56.5q131 0 255 -46t234 -141l-94 -96q-90 63 -190.5 99t-204.5 36q-125 0 -230.5 -44t-183.5 -120.5t-122 -180t-44 -220.5q0 -125 44 -231.5t122 -185.5t183.5 -123t230.5 -44q106 0 205.5 34t189.5 118l94 -96 q-111 -104 -234.5 -153.5t-254.5 -49.5q-147 0 -276.5 56.5t-226.5 154.5t-153.5 232t-56.5 288z" />
<glyph unicode="D" horiz-adv-x="1271" d="M49 0v1434h402q68 0 151.5 -10.5t168.5 -39t166 -79t143.5 -131t100.5 -195.5t38 -272q0 -166 -46.5 -284t-119 -197t-162.5 -124t-178 -67.5t-164 -28.5t-119 -6h-381zM199 135h231q143 0 260 41t199 116t126 180.5t44 234.5q0 137 -41 246.5t-120 186.5t-191.5 117.5 t-255.5 40.5h-252v-1163z" />
<glyph unicode="E" horiz-adv-x="856" d="M61 0v1436h748v-144h-602v-495h498v-131h-498v-523h602v-143h-748z" />
<glyph unicode="F" horiz-adv-x="864" d="M59 0v1436h748v-144h-602v-495h497v-131h-497v-666h-146z" />
<glyph unicode="G" horiz-adv-x="1320" d="M47 709q0 147 57.5 281t156.5 234.5t233.5 160t287.5 59.5q129 0 254 -51.5t238 -155.5l-94 -94q-90 86 -191.5 124t-206.5 38q-125 0 -233.5 -47.5t-188 -128t-126 -189.5t-46.5 -231q0 -117 46.5 -221.5t126 -183.5t188 -124t233.5 -45q92 0 177 27.5t178 87.5v342 h-432v125h575v-529q-109 -96 -238 -145t-260 -49q-154 0 -288 56t-233 153.5t-156.5 227.5t-57.5 278z" />
<glyph unicode="H" d="M45 0v1434h145v-633h687v633h145v-1434h-145v666h-687v-666h-145z" />
<glyph unicode="I" horiz-adv-x="311" d="M78 0v1434h145v-1434h-145z" />
<glyph unicode="J" horiz-adv-x="573" d="M45 111q31 18 57.5 36.5t55.5 36.5q29 -33 60.5 -47t60.5 -14q33 2 53 26.5t32.5 59.5t16.5 74t4 71v1080h143v-1080q0 -190 -62.5 -281t-207.5 -91q-68 0 -123 37.5t-90 91.5z" />
<glyph unicode="K" horiz-adv-x="1243" d="M66 0v1434h145v-1434h-145zM238 737l657 697h192l-655 -680l772 -754h-188z" />
<glyph unicode="L" horiz-adv-x="1005" d="M82 0v1434h143v-1291h707v-143h-850z" />
<glyph unicode="M" horiz-adv-x="1349" d="M61 0v1466l619 -641q106 109 219 225.5t221 229.5q47 49 91 93t92 91v-1464h-146v1106l-477 -490l-475 494v-1110h-144z" />
<glyph unicode="N" horiz-adv-x="1249" d="M98 0v1495l944 -1155v1094h129v-1487l-940 1167v-1114h-133z" />
<glyph unicode="O" horiz-adv-x="1427" d="M-4 717q0 154 55 287t153.5 230t230.5 152.5t286 55.5q145 0 277 -55.5t231.5 -152.5t159 -230.5t59.5 -286.5q0 -147 -59.5 -278.5t-159 -229.5t-231.5 -156.5t-277 -58.5q-154 0 -286 58.5t-230.5 156.5t-153.5 229t-55 279zM145 717q0 -117 44 -221.5t121 -183.5 t182.5 -126t228.5 -47q117 0 221.5 47t184 126t125.5 183.5t46 221.5q0 125 -47 230.5t-127 183t-184 121.5t-219 44q-123 0 -228.5 -44t-182.5 -121.5t-121 -183t-44 -230.5z" />
<glyph unicode="P" horiz-adv-x="823" d="M63 0v1434h379q76 0 148 -29t129 -81t92 -127t35 -169q0 -59 -23.5 -128t-73 -129t-124 -100t-174.5 -40h-252v-631h-136zM199 780h250q57 0 103 22.5t78 58.5t48 80t16 87q0 70 -26.5 120t-64.5 81t-81 45t-73 14h-250v-508z" />
<glyph unicode="Q" horiz-adv-x="1454" d="M10 719q0 154 55.5 287t152.5 230t229.5 152.5t285.5 55.5q145 0 277.5 -55.5t231.5 -152.5t157.5 -230.5t58.5 -286.5q0 -147 -58.5 -278.5t-157.5 -229.5t-231.5 -156.5t-277.5 -58.5q-154 0 -286 58.5t-229 156.5t-152.5 229t-55.5 279zM158 719q0 -117 44 -221.5 t120.5 -183t182 -126t228.5 -47.5q117 0 222.5 47.5t184.5 126t126 183t47 221.5q0 125 -48 231.5t-128 183t-185.5 120.5t-218.5 44q-123 0 -228.5 -44t-182 -120.5t-120.5 -183t-44 -231.5zM928 395q27 29 50 50.5t52 48.5l387 -385l-102 -105z" />
<glyph unicode="R" horiz-adv-x="1001" d="M63 0v1434h377q76 0 149 -29t130 -81t92 -127t35 -169q0 -117 -66.5 -212t-173.5 -148q106 -168 215 -334t215 -334h-172l-409 631h-258v-631h-134zM197 780h249q57 0 103.5 22.5t78 58.5t49 80t17.5 87q0 70 -26.5 120t-65.5 81t-81 45t-75 14h-249v-508z" />
<glyph unicode="S" horiz-adv-x="1034" d="M23 143l63 117l68 -39q70 -35 167 -65.5t205 -30.5q156 0 242 68q76 70 76 184q0 102 -109 180q-49 35 -110.5 63.5t-124.5 57.5q-78 35 -157 70.5t-138 85.5q-72 55 -104.5 120.5t-32.5 145.5q0 76 30 141q14 29 38 56.5t52 52.5q59 45 140.5 71.5t173.5 26.5t176 -19.5 t143 -39.5q16 -4 27.5 -9.5t28.5 -11.5q-16 -33 -31 -63.5t-31 -59.5q-59 23 -140 43.5t-173 20.5q-33 0 -87.5 -8.5t-107.5 -38.5h2q-98 -55 -98 -172q0 -45 25.5 -80t68.5 -66t100.5 -57.5t120.5 -52.5q80 -35 168 -77t154 -93q153 -122 153 -289q0 -188 -155 -291 q-61 -45 -145.5 -69.5t-176.5 -26.5q-106 0 -204.5 27.5t-163.5 58.5q-47 23 -80 41t-53 28z" />
<glyph unicode="T" horiz-adv-x="837" d="M-23 1300v134h889v-134h-379v-1300h-133v1300h-377z" />
<glyph unicode="U" horiz-adv-x="1124" d="M61 506v928h146v-928q0 -84 28.5 -157t77.5 -126t114 -82.5t138 -29.5q74 0 139.5 29.5t113.5 82.5t77 126t29 157v928h143v-928q0 -104 -39 -198.5t-106.5 -165t-158.5 -111.5t-198 -41q-104 0 -196.5 41t-161 111.5t-107.5 163.5t-39 200z" />
<glyph unicode="V" horiz-adv-x="1572" d="M41 1434h168l584 -1135l356 702l221 433h166l-743 -1457l-408 789q-86 166 -172 330t-172 338z" />
<glyph unicode="W" horiz-adv-x="1847" d="M8 1434h150l463 -1065l127 286q0 2 4 9.5t6 11.5l92 205q-35 88 -73 177t-72 177l-84 199h155l150 -371l153 371h152l-227 -555l229 -510q27 61 58.5 135t65.5 150.5t65.5 150.5t60.5 139l213 490h151q-154 -367 -306 -723.5t-306 -722.5l-309 702l-121 -276l-187 -428z " />
<glyph unicode="X" horiz-adv-x="1376" d="M43 0l559 741q-53 72 -113.5 153t-121.5 159l-158 209q-31 43 -64.5 86t-66.5 86h182l432 -572l226 293l210 279h181l-523 -693l562 -741h-183l-473 623l-473 -623h-176z" />
<glyph unicode="Y" horiz-adv-x="1251" d="M16 1434h177l436 -574q47 63 102 138t109 143l53 71q41 57 85 110.5t85 111.5h178l-518 -686l-23 -29v-719h-145v719l-109 143q-72 96 -143.5 189.5t-142.5 189.5z" />
<glyph unicode="Z" horiz-adv-x="1183" d="M51 0l828 1290h-805v144h1069l-824 -1291h824v-143h-1092z" />
<glyph unicode="[" horiz-adv-x="471" d="M68 -522v1964h317v-142h-174v-1681h174v-141h-317z" />
<glyph unicode="\" horiz-adv-x="763" d="M74 1526h149q113 -391 225.5 -774t225.5 -775h-156z" />
<glyph unicode="]" horiz-adv-x="466" d="M68 -381h174v1681h-174v142h317v-1964h-317v141z" />
<glyph unicode="^" horiz-adv-x="1130" d="M86 782l475 809l471 -809h-164l-307 535q-39 -66 -82 -139.5t-82 -139.5v2q-37 -63 -75.5 -131.5t-71.5 -126.5h-164z" />
<glyph unicode="_" horiz-adv-x="1116" d="M94 -127h907v-145h-907v145z" />
<glyph unicode="`" horiz-adv-x="507" d="M125 1860h98q41 -72 82 -146t82 -145h-145z" />
<glyph unicode="a" horiz-adv-x="1028" d="M27 281q0 104 45 176.5t116.5 119t160.5 67t179 20.5q53 0 112.5 -6.5t127.5 -22.5q0 72 -23.5 122t-60.5 80.5t-85 45t-97 14.5q-80 0 -163 -35t-155 -102q-35 53 -50 72.5t-25 35.5q94 78 197.5 118t201.5 40q111 0 188.5 -29.5t126.5 -82t70.5 -124t21.5 -157.5 q0 -70 -5 -139.5t-5 -147.5q0 -57 4.5 -103t18.5 -69q8 -10 18 -16t21 -11q10 -4 22 -4v-143q-98 0 -146 53t-65 158q-18 -33 -51 -71t-80 -69.5t-109.5 -53t-140.5 -21.5q-70 0 -136 16.5t-118.5 51t-84 88t-31.5 129.5zM174 299q0 -25 8 -55.5t32 -59t67.5 -48 t115.5 -19.5q111 0 183.5 40t114.5 96t58.5 114.5t16.5 95.5v53q-47 6 -102.5 13.5t-106.5 7.5q-66 0 -133.5 -11.5t-124.5 -38t-93 -72.5t-36 -116z" />
<glyph unicode="b" horiz-adv-x="1097" d="M49 0v1548h150v-694q31 47 84 84q45 33 116.5 59.5t175.5 26.5q109 0 198 -42t151.5 -112.5t96.5 -164t34 -193.5q0 -104 -34 -199.5t-96.5 -168t-151.5 -115.5t-198 -43q-104 0 -175.5 30.5t-115.5 67.5t-64 68l-21 30v-182h-150zM199 514q0 -98 32.5 -172t86 -124 t120.5 -74.5t137 -24.5q88 0 150.5 38t102.5 96t59.5 129t19.5 134q0 61 -21.5 127t-63.5 120t-103.5 89t-143.5 35q-74 0 -141 -23.5t-119.5 -71t-84 -117t-31.5 -161.5z" />
<glyph unicode="c" horiz-adv-x="944" d="M35 502q0 113 40 210t110.5 168.5t167 111.5t208.5 40q94 0 181 -28.5t173 -94.5l-100 -102q-59 41 -120.5 66.5t-133.5 25.5q-80 0 -151.5 -31.5t-125 -86t-85 -126t-31.5 -153.5q0 -74 31.5 -142.5t85 -121t125 -83t151.5 -30.5q72 0 131.5 23.5t122.5 68.5l100 -102 q-86 -66 -173 -94.5t-181 -28.5q-113 0 -209 40t-166.5 108.5t-110.5 161.5t-40 200z" />
<glyph unicode="d" horiz-adv-x="1142" d="M66 512q0 100 33.5 193.5t96 164t151.5 112.5t198 42q104 0 176 -26.5t117 -59.5q53 -37 84 -84v694h149v-1548h-149v182l-20 -30q-21 -31 -65 -68t-116 -67.5t-176 -30.5q-109 0 -198 43t-151.5 115.5t-96 168t-33.5 199.5zM213 516q0 -63 19.5 -134t59.5 -129 t102.5 -96t150.5 -38q70 0 137.5 24.5t120.5 74.5t86 124t33 172q0 92 -32 161.5t-84 117t-120 71t-141 23.5q-82 0 -143.5 -35t-103.5 -89t-63.5 -119.5t-21.5 -127.5z" />
<glyph unicode="e" horiz-adv-x="1046" d="M43 504q0 104 30.5 198.5t92 166t153 113.5t211.5 42q109 0 197 -41t151.5 -114.5t98.5 -174t35 -219.5h-826q0 -78 22.5 -144.5t65.5 -115.5t107.5 -76.5t148.5 -27.5q68 0 122.5 20.5t94 48t65.5 55t36 41.5l90 -92q-78 -94 -180.5 -144t-227.5 -50q-121 0 -212 39 t-152.5 107.5t-92 162.5t-30.5 205zM193 596h661q-12 63 -41 118.5t-72 95.5t-97.5 63.5t-117.5 23.5q-72 0 -131 -26.5t-103 -68.5t-69.5 -96.5t-29.5 -109.5z" />
<glyph unicode="f" horiz-adv-x="552" d="M39 879v147h123v150q0 323 270 323h2q66 0 120 -41t93 -94l-112 -68q-31 33 -58.5 45.5t-62.5 12.5q-37 -4 -57.5 -21.5t-32 -43t-14.5 -55.5t-3 -58v-150h201v-147h-201v-879h-145v879h-123z" />
<glyph unicode="g" horiz-adv-x="960" d="M8 -217q0 98 63.5 165.5t168.5 114.5l-20 9q-21 10 -48 29.5t-47.5 50t-20.5 73.5q0 41 32 82t85 64q0 -2 -22.5 16.5t-48 54t-48 91t-22.5 126.5q0 74 28.5 140.5t79 117t119 79t150.5 28.5h426v-123h-164l15 -19q16 -20 34 -52.5t32.5 -76.5t14.5 -94q0 -98 -40 -173.5 t-132 -127.5q-49 -29 -118.5 -40t-132 -21t-107.5 -25.5t-45 -50.5q0 -23 21.5 -38t62.5 -27.5t97 -25t128 -28.5q174 -45 254 -121.5t80 -197.5q0 -74 -35 -132.5t-94.5 -97t-141.5 -59t-174 -20.5q-86 0 -163.5 20.5t-137 59t-94.5 97t-35 132.5zM168 -217q0 -47 22.5 -82 t60.5 -58.5t86 -34.5t101 -11q57 0 109.5 11t90.5 34.5t60.5 58.5t22.5 82q0 45 -22.5 82t-60.5 63.5t-90 40t-110 13.5q-53 0 -101 -13.5t-86 -40t-60.5 -63.5t-22.5 -82zM225 659q0 -45 16.5 -86t46 -71.5t72.5 -49t97 -18.5q45 0 86 16.5t72.5 46t50 71.5t18.5 91 t-18.5 91.5t-49 73t-71.5 49t-88 18.5q-109 0 -170.5 -66.5t-61.5 -165.5z" />
<glyph unicode="h" horiz-adv-x="987" d="M72 0v1546h147l2 -719l15 31q16 31 49.5 68t90 67.5t140.5 30.5q109 0 186.5 -42t128 -112.5t74 -164t23.5 -193.5v-512h-150v516q0 61 -10 127t-39 120t-80 89t-133 35q-74 0 -129 -30t-92 -80t-56.5 -116.5t-19.5 -142.5v-518h-147z" />
<glyph unicode="i" horiz-adv-x="382" d="M117 2v1024h147v-1024h-147zM117 1212v140h147v-140h-147z" />
<glyph unicode="j" horiz-adv-x="479" d="M-111 -315l52 36l59 46q39 -43 66.5 -52.5t50.5 -9.5q66 0 97.5 64.5t31.5 162.5v1092h151v-1092q0 -55 -8 -121.5t-36.5 -123t-85 -94t-150.5 -37.5q-66 0 -127.5 38.5t-100.5 90.5zM250 1208v140h145v-140h-145z" />
<glyph unicode="k" horiz-adv-x="890" d="M47 0v1546h146v-1546h-146zM223 561l457 459h203l-455 -459l563 -563h-205z" />
<glyph unicode="l" horiz-adv-x="438" d="M88 317v1244h148v-1244q0 -43 35.5 -93t109.5 -64v-148q-78 6 -134.5 35t-91 72t-51 95t-16.5 103z" />
<glyph unicode="m" horiz-adv-x="1650" d="M53 0v1024h148l2 -143q35 43 80 80q39 31 93 56t124 25q115 0 188.5 -46t114.5 -101q49 -66 74 -145q29 80 75 145q41 55 102.5 101t153.5 46q111 0 189 -42t127 -112.5t72.5 -163.5t23.5 -194v-530h-150v535q0 61 -10 126.5t-38.5 119t-80 88t-133.5 34.5 q-70 0 -123 -26.5t-91 -73.5t-58.5 -110.5t-22.5 -135.5v-20v-43t-1 -88.5t-1 -157.5v-248h-149v535q0 61 -10.5 126.5t-39 119t-79.5 88t-133 34.5q-72 0 -128.5 -28.5t-94 -79t-57 -117t-19.5 -141.5v-537h-148z" />
<glyph unicode="n" horiz-adv-x="1003" d="M78 0v1024h147l2 -143q31 43 76 80q37 31 92.5 56t126.5 25q109 0 186.5 -42t128 -112.5t74 -163.5t23.5 -194v-530h-150v535q0 61 -10 126.5t-38.5 119t-80 88t-133.5 34.5q-74 0 -129 -28.5t-92 -79t-56.5 -117t-19.5 -141.5v-537h-147z" />
<glyph unicode="o" horiz-adv-x="1056" d="M8 510q0 104 42 199.5t114 167t166 113.5t198 42t198.5 -42t166.5 -113.5t115 -167t43 -199.5q0 -111 -43 -206t-115 -164.5t-166.5 -108.5t-198.5 -39t-198 39t-166 108.5t-114 164.5t-42 206zM147 510q0 -82 28 -151.5t79 -120t120.5 -79t153.5 -28.5q82 0 152 28.5 t121 79t78.5 120t27.5 151.5q0 76 -27.5 145.5t-77.5 122.5t-120 84t-154 31t-153.5 -31t-120.5 -84t-79 -122.5t-28 -145.5z" />
<glyph unicode="p" horiz-adv-x="1114" d="M53 -524v1548h150v-182l21 30q20 31 64 68t115.5 67.5t176.5 30.5q109 0 197.5 -43t151 -115.5t96.5 -168t34 -199.5q0 -100 -34 -193.5t-96.5 -164t-151 -112.5t-197.5 -42q-104 0 -176 25.5t-117 58.5q-53 37 -84 86v-694h-150zM203 510q0 -92 31.5 -161.5t84 -117 t120 -71t141.5 -23.5q82 0 143 35t103 89t63.5 119.5t21.5 127.5q0 63 -19.5 134t-59 129t-102 96t-150.5 38q-70 0 -137.5 -24.5t-121 -74.5t-86 -124t-32.5 -172z" />
<glyph unicode="q" horiz-adv-x="1112" d="M45 512q0 104 34 199.5t96.5 168t151.5 115.5t197 43q104 0 176 -30.5t116 -67.5t64 -68l21 -30v182h150v-1548h-150v694q-31 -49 -84 -86q-45 -33 -117 -58.5t-176 -25.5q-109 0 -197.5 42t-151 112.5t-96.5 164t-34 193.5zM193 508q0 -61 21.5 -127t63 -120t103 -89 t143.5 -35q74 0 141.5 23.5t120 71t84 117t31.5 161.5q0 98 -32.5 172t-86 124t-121 74.5t-137.5 24.5q-88 0 -150.5 -38t-102.5 -96t-59 -129t-19 -134z" />
<glyph unicode="r" horiz-adv-x="694" d="M63 0v1024h146l2 -143q20 31 54 59.5t74 52t84 36.5t85 13q154 0 252 -84l-74 -129q-35 33 -80 53.5t-98 20.5q-72 0 -128 -28.5t-94 -79t-57.5 -117t-19.5 -141.5v-537h-146z" />
<glyph unicode="s" horiz-adv-x="778" d="M12 92l66 117q27 -12 63.5 -26.5t78.5 -28t86 -22.5t87 -9q84 0 136.5 36t52.5 105q0 31 -16.5 53.5t-44 43t-65.5 39t-81 36.5v-2l-29 12q-53 25 -105.5 51.5t-94.5 64.5t-68.5 89t-26.5 125q0 117 85 188.5t239 71.5q59 0 109.5 -10t88 -22.5t62 -24.5t33.5 -18 q-18 -29 -30.5 -54.5t-29.5 -56.5q-37 18 -99.5 37.5t-133.5 19.5q-86 0 -135.5 -41t-49.5 -100q0 -31 19.5 -56.5t51.5 -49t74 -44t87 -41.5q55 -27 112.5 -57.5t105.5 -67t78 -82.5t30 -104q0 -123 -94.5 -199.5t-260.5 -76.5q-78 0 -144.5 14t-116.5 32.5t-81 36 t-39 21.5z" />
<glyph unicode="t" horiz-adv-x="694" d="M53 879v145h103v213h145v-213h281v-145h-281v-566q0 -29 3 -60.5t15.5 -58t35 -43t63.5 -16.5q33 0 57.5 12.5t52.5 49.5q31 -23 56.5 -39.5t56.5 -36.5q-37 -51 -92 -91t-125 -40q-268 0 -268 323v566h-103z" />
<glyph unicode="u" horiz-adv-x="1009" d="M51 494v530h152v-535q0 -61 10 -126.5t39 -120t79 -88t132 -33.5q74 0 129 28.5t93 79t56.5 117t18.5 141.5v537h151v-1024h-151l-2 143q-29 -43 -72 -77q-37 -29 -92 -53.5t-131 -24.5q-109 0 -186.5 41t-128 110.5t-74 161.5t-23.5 193z" />
<glyph unicode="v" horiz-adv-x="1105" d="M10 1024h168l385 -733q8 18 21.5 44.5t27 55.5t26.5 55.5t24 45.5q45 88 93 179t95 179l88 174h170q-63 -125 -120.5 -235.5t-119.5 -231.5l-307 -596q-63 121 -122.5 235.5t-118 227.5t-116 226.5t-118.5 232.5z" />
<glyph unicode="w" horiz-adv-x="1554" d="M51 1024h144l251 -719q84 168 172.5 342t172.5 344l344 -686l251 719h144l-375 -1065l-364 725q-88 -180 -182.5 -363.5t-184.5 -361.5q-94 272 -186.5 532.5t-186.5 532.5z" />
<glyph unicode="x" horiz-adv-x="1046" d="M-8 0l444 575q-29 35 -58.5 76t-58.5 76l-229 297h189l249 -324l248 324h187l-340 -449l440 -575h-186l-349 451q-29 -35 -60.5 -77t-59.5 -77l-230 -297h-186z" />
<glyph unicode="y" horiz-adv-x="1075" d="M0 1024h174l371 -606l51 94q23 43 45.5 85t42.5 77q47 82 91 167t87 167v-2l10 18h172l-833 -1548h-178l426 790q-117 190 -229.5 377.5t-229.5 380.5z" />
<glyph unicode="z" horiz-adv-x="933" d="M53 6l557 871h-493v147h760l-551 -868h503v-150h-776z" />
<glyph unicode="{" horiz-adv-x="612" d="M102 702v140h17q45 0 70.5 20.5t38 64.5t14.5 112.5t2 164.5q0 100 8 167t32.5 106t67.5 54t115 15h55v-131h-39q-41 0 -59 -9t-23 -13q-6 -14 -10 -36t-4 -65v-100q0 -123 -13.5 -220.5t-43.5 -144.5v2l-4 -4q-10 -10 -22.5 -23.5t-31.5 -27.5q27 -23 50.5 -50.5 t31.5 -43.5h-2q8 -16 14.5 -56t10.5 -89.5t7 -98.5t3 -86v-92q0 -63 12 -90q4 -10 21.5 -23.5t62.5 -13.5h39v-133h-55q-66 0 -108 17.5t-70 50.5q-12 18 -20.5 36.5t-13.5 48t-8 73.5t-3 116q0 88 -2 156.5t-13.5 113.5t-37 68.5t-72.5 23.5h-17zM399 170l15 10l41 -35 q-45 0 -56 25z" />
<glyph unicode="|" horiz-adv-x="352" d="M119 -522v1964h127v-1964h-127z" />
<glyph unicode="}" horiz-adv-x="612" d="M102 -2v133h37q47 0 64.5 15.5t27.5 29.5h-4q8 23 9 82v92q0 37 2 86t7 98.5t11 89.5t14 58q8 16 33 44t47 48q-25 20 -36 31.5t-17 19.5l-2 2q-33 47 -46 144.5t-13 220.5v100q0 41 -5.5 63.5t-9.5 37.5q-4 4 -22.5 13t-59.5 9h-37v131h54q70 0 113.5 -15t68 -54 t34 -105.5t9.5 -167.5q0 -96 2 -164.5t13.5 -112.5t37 -64.5t72.5 -20.5h16v-140h-16q-47 0 -72.5 -23.5t-37 -68.5t-13.5 -113.5t-2 -156.5q0 -72 -3 -117t-8 -74.5t-14.5 -47t-21.5 -35.5q-29 -35 -71 -51.5t-107 -16.5h-54zM195 145q4 0 20 11l-4 16l-16 -4v-23z" />
<glyph unicode="~" horiz-adv-x="927" d="M100 494v32q0 41 11.5 82t37 74t65.5 53.5t97 20.5q35 0 76 -18.5t82 -43.5q43 -29 83 -48t81 -19q10 0 23.5 4t29.5 20q6 4 17.5 23.5t13.5 83.5h112l5 -2v-4q2 -10 2 -33q0 -104 -61.5 -162.5t-147.5 -58.5q-59 0 -95 16t-71 39l-25 16h2q-18 10 -44.5 22.5t-67.5 29.5 l2 -3q-8 4 -15.5 5.5t-13.5 1.5q-45 0 -62.5 -42t-21.5 -89h-115z" />
<glyph unicode="&#xa1;" horiz-adv-x="389" d="M94 760h195v187h-195v-187zM117 58v-578h147v578l-22 274q-6 68 -11.5 133.5t-9.5 132.5h-59q-6 -88 -14.5 -164.5t-14.5 -160.5q-4 -53 -8 -107.5t-8 -107.5z" />
<glyph unicode="&#xa2;" horiz-adv-x="983" d="M35 502q0 -106 40 -199.5t110.5 -162t167 -108.5t208.5 -40q94 0 181 28.5t173 94.5l-100 102q-63 -45 -122.5 -68.5t-131.5 -23.5q-80 0 -151.5 30.5t-125 83t-85 121t-31.5 142.5q0 82 31.5 153.5t85 126t125 86t151.5 31.5q72 0 133.5 -25.5t120.5 -66.5l100 102 q-86 66 -173 94.5t-181 28.5q-113 0 -209 -40t-166.5 -111.5t-110.5 -169t-40 -209.5zM500 -168v1337h123v-1337h-123z" />
<glyph unicode="&#xa3;" horiz-adv-x="942" d="M18 0l41 96v2q8 16 26.5 62.5t41.5 115t47.5 155.5t42.5 187h-98v138h112q2 23 2 56.5v53.5v41q0 51 2.5 106.5t10.5 104.5q23 84 66.5 146.5t96 102.5t104.5 59.5t91 19.5q84 0 154.5 -32t118.5 -79q-18 -14 -33 -28.5t-29 -28.5l-45 -37q-29 31 -70 49.5t-88 18.5 t-87 -23.5t-74 -52.5q-43 -70 -59.5 -154t-18.5 -182v-35v-50t-2 -56h291v-138h-306q-23 -141 -58.5 -264t-66.5 -217h650v-137h-863z" />
<glyph unicode="&#xa4;" horiz-adv-x="1038" d="M117 1032q0 59 20.5 120.5t57.5 121.5q-10 10 -21.5 22.5t-21.5 20.5h2l-31 29q20 18 30.5 30.5t26.5 28.5l39 39l70 -72q59 39 120.5 57.5t122.5 18.5q59 0 121 -18.5t121 -59.5l53 53h-6q20 10 29 19q18 -16 34.5 -36t30.5 -36q4 -6 12.5 -11t12.5 -11l-72 -72 q37 -61 57.5 -123t20.5 -121q0 -61 -20.5 -122.5t-55.5 -118.5l70 -72q-27 -27 -49.5 -48.5t-46.5 -45.5l-70 71q-125 -76 -242 -75q-59 0 -121.5 17t-121.5 56q-12 -10 -35 -34.5t-37 -38.5q-16 14 -29.5 28.5t-25.5 30.5q-10 10 -18.5 20.5t-18.5 20.5l72 72 q-39 59 -59.5 119.5t-20.5 119.5zM233 1032q0 -61 24 -115.5t63.5 -95.5t94 -64.5t117.5 -23.5q61 0 115.5 23.5t95.5 64.5t64.5 95.5t23.5 115.5q0 63 -23.5 117.5t-64.5 94.5t-95 63.5t-116 23.5q-63 0 -117.5 -23.5t-94 -63.5t-63.5 -94.5t-24 -117.5z" />
<glyph unicode="&#xa5;" horiz-adv-x="1316" d="M45 1442h180l439 -578q66 90 148.5 201t152.5 203l133 174h182l-520 -690l-25 -29v-723h-143v723q-53 72 -121 159t-127 165zM229 352v148h873v-148h-873zM229 670v143h873v-143h-873z" />
<glyph unicode="&#xa6;" horiz-adv-x="438" d="M170 291h123v-813h-123v813zM170 627v815h123v-815h-123z" />
<glyph unicode="&#xa7;" d="M111 1225q0 72 29.5 131t82.5 101t127 65.5t162 23.5q111 0 186.5 -20.5t161.5 -61.5v-153q-104 61 -185 81.5t-163 20.5q-43 0 -90 -14.5t-86 -40t-63.5 -61t-24.5 -80.5q0 -51 35.5 -92.5t91 -77t125 -65.5t139.5 -58q55 -27 104.5 -64t86 -82t58 -96t21.5 -109 q0 -94 -49 -175t-127 -138q12 -18 29 -31h-6l63 -36h2q78 -51 119 -125t41 -154q0 -92 -40 -159.5t-103.5 -112.5t-142.5 -66.5t-156 -21.5q-129 0 -231.5 45t-170.5 98v145q100 -70 201.5 -112.5t200.5 -42.5q152 0 225.5 61.5t73.5 165.5q0 47 -22.5 84t-61.5 67.5 t-92.5 58.5t-114.5 56q-90 43 -159 82t-115 84t-69.5 100.5t-23.5 126.5q0 88 52.5 172t134.5 150q-123 68 -189.5 144.5t-66.5 185.5zM307 573q0 -49 18.5 -93t50.5 -75.5t76 -50t93 -18.5t93 18.5t75.5 50t50 75.5t18.5 93t-18.5 92.5t-50 75t-75.5 50t-93 18.5t-93 -18.5 t-76 -50t-50.5 -74.5t-18.5 -93zM762 229l39 -2v-20q-8 0 -10 2l-5 4q-6 4 -12 7t-12 9zM819 195l19 8l-17 -10z" />
<glyph unicode="&#xa8;" horiz-adv-x="782" d="M143 1581v141h148v-141h-148zM524 1581v141h148v-141h-148z" />
<glyph unicode="&#xa9;" horiz-adv-x="1499" d="M37 719q0 141 53 272t149.5 230.5t228.5 160t290 60.5q137 0 267 -52.5t231.5 -147.5t163 -228t61.5 -295q0 -145 -57.5 -276.5t-156 -229.5t-229.5 -156.5t-280 -58.5q-141 0 -272.5 55.5t-230.5 151.5t-158.5 228t-59.5 286zM115 719q0 -133 50 -250t138 -204t205 -137 t250 -50t250.5 50t204.5 137t138.5 204t51.5 250q0 135 -51.5 251.5t-138.5 204t-204.5 137.5t-250.5 50t-250 -50t-205 -137.5t-138 -204t-50 -251.5zM311 723q0 94 35 177t96.5 144.5t142.5 96.5t173 35q78 0 160.5 -30t156.5 -87l-65 -55q-119 83 -252 83 q-80 0 -147.5 -28.5t-117 -77.5t-77 -115.5t-27.5 -142.5q0 -80 27.5 -147.5t77 -116.5t117 -78t147.5 -29q68 0 130 21.5t122 75.5l61 -58q-72 -59 -154.5 -93t-158.5 -34q-92 0 -173 36t-142.5 98.5t-96.5 145.5t-35 179z" />
<glyph unicode="&#xaa;" horiz-adv-x="471" d="M81 1135q0 41 17.5 69t45 46t62.5 26t70 8q20 0 43.5 -2.5t49.5 -8.5q0 28 -9 47.5t-23.5 31.5t-33 17.5t-38.5 5.5q-31 0 -63 -13.5t-60 -39.5q-14 20 -20 28t-10 14q37 30 77.5 45.5t78.5 15.5q43 0 73 -11.5t49.5 -32t27.5 -48t8 -61.5q0 -27 -2 -54t-2 -57 q0 -23 2 -40.5t7 -26.5q3 -4 7 -6.5t8 -4.5q4 -1 9 -1v-56q-38 0 -56.5 20.5t-25.5 61.5q-7 -13 -20 -27.5t-31 -27t-42.5 -21t-54.5 -8.5q-28 0 -53.5 6.5t-46 20t-32.5 34.5t-12 50zM138 1142q0 -9 3 -21t12.5 -23t26.5 -18.5t45 -7.5q43 0 71 15.5t44.5 37t23 44.5 t6.5 37v21q-19 2 -40.5 5t-41.5 3q-25 0 -51.5 -4.5t-48.5 -15t-36 -28t-14 -45.5z" />
<glyph unicode="&#xab;" horiz-adv-x="1669" d="M113 629q109 63 209 121.5t198 116t196.5 115.5t205.5 122v-168l-535 -307l164 -97h-2l373 -217v-157zM750 629q207 121 405.5 237.5t403.5 237.5v-168l-535 -307l166 -97h-2l371 -217v-157z" />
<glyph unicode="&#xac;" horiz-adv-x="956" d="M94 905v125h776v-405h-122v280h-654z" />
<glyph unicode="&#xad;" horiz-adv-x="753" d="M94 451v145h576v-145h-576z" />
<glyph unicode="&#xae;" horiz-adv-x="1495" d="M31 719q0 145 56 276t153.5 230.5t228.5 158t283 58.5q147 0 278 -56.5t229.5 -153.5t157 -229.5t58.5 -283.5q0 -143 -56.5 -273.5t-154 -229.5t-229.5 -158.5t-283 -59.5q-143 0 -274.5 55.5t-231 152.5t-157.5 228t-58 285zM111 719q0 -133 50 -250t137 -203t204 -136 t250 -50q131 0 247.5 50t204.5 136t138.5 203t50.5 250q0 131 -50.5 247.5t-138.5 205t-204.5 138.5t-247.5 50q-133 0 -250 -50t-204 -138.5t-137 -205t-50 -247.5zM496 291v885h176q18 2 65 1t95.5 -24t85 -76t36.5 -153q0 -78 -35.5 -135.5t-111.5 -90.5l264 -407h-100 l-252 393h-139v-393h-84zM580 766h116q63 0 98 19.5t50.5 46t18.5 53t3 39.5q0 55 -15 85.5t-43 47t-64.5 20.5t-79.5 4h-84v-315z" />
<glyph unicode="&#xaf;" horiz-adv-x="1097" d="M94 1569v145h907v-145h-907z" />
<glyph unicode="&#xb0;" horiz-adv-x="497" d="M88 1386q0 33 13.5 63t36 51.5t52 34.5t64.5 13q33 0 62.5 -13t52 -34.5t36 -51.5t13.5 -63q0 -35 -13.5 -64.5t-36 -52t-52 -35.5t-62.5 -13q-68 0 -117 49t-49 116zM150 1386q0 -43 28.5 -73.5t75.5 -30.5q45 0 72.5 30.5t27.5 73.5q0 41 -27.5 72t-72.5 31 q-47 0 -75.5 -31t-28.5 -72z" />
<glyph unicode="&#xb1;" horiz-adv-x="911" d="M139 0v143h637v-143h-637zM139 463v143h248v244h143v-244h246v-143h-246v-250h-143v250h-248z" />
<glyph unicode="&#xb2;" horiz-adv-x="630" d="M46 614q118 125 199 219t131 163.5t72 119.5t22 87q0 40 -13 71t-33 51.5t-46.5 31t-52.5 10.5q-120 0 -150 -147h-81q8 55 31.5 97t55.5 70t70.5 42t76.5 14q49 0 90.5 -18t71 -50t46 -74.5t16.5 -91.5q0 -52 -25 -110.5t-69 -123.5t-103 -135.5t-127 -146.5h345v-79 h-527z" />
<glyph unicode="&#xb3;" horiz-adv-x="600" d="M66 817h83q16 -57 58 -95t99 -38q34 0 64 12.5t51.5 34.5t34 51.5t12.5 64.5q0 32 -11.5 60.5t-32 50.5t-49 35t-63.5 15v79q30 1 55 12.5t41.5 30.5t26 43.5t9.5 52.5t-11 53.5t-30 44t-44 29.5t-53 11q-25 0 -48 -9.5t-41.5 -26t-30.5 -39t-17 -47.5h-79q4 42 23.5 79 t48.5 64t66.5 42.5t77.5 15.5q45 0 84.5 -17t69 -46.5t46.5 -68.5t17 -85q0 -42 -13.5 -74t-29.5 -55q-20 -27 -43 -46q30 -23 55 -53q20 -27 37 -65t17 -86q0 -49 -19 -93t-51.5 -77.5t-76.5 -52.5t-93 -19q-45 0 -85 16.5t-72 44t-53 67t-30 84.5z" />
<glyph unicode="&#xb4;" horiz-adv-x="552" d="M156 1567q20 39 36.5 65.5t34.5 61.5l92 164h101l-119 -291h-145z" />
<glyph unicode="&#xb5;" horiz-adv-x="1056" d="M106 494v530h152v-535q0 -61 10.5 -126.5t39 -120t78.5 -88t132 -33.5q74 0 129 28.5t93 79t56.5 117t18.5 141.5v537h152v-1024h-152l-2 170q0 -4 -16.5 -34t-53 -64.5t-93 -62t-132.5 -27.5q-109 0 -186.5 42t-127.5 112.5t-74 163.5t-24 194zM106 -522v1046h152v-1046 h-152z" />
<glyph unicode="&#xb6;" horiz-adv-x="1161" d="M94 1083q0 74 29 139.5t78 114.5t115.5 77t140.5 28h618v-142h-110v-1822h-146v1822h-211v-1812h-141v1233q-78 4 -146.5 33.5t-118.5 79t-79 113t-29 136.5z" />
<glyph unicode="&#xb7;" horiz-adv-x="288" d="M68 463v141h145v-141h-145z" />
<glyph unicode="&#xb8;" horiz-adv-x="606" d="M152 -285q43 -6 65 -6q76 0 112 29t36 53q0 31 -16.5 48.5t-38 26.5t-44 12t-35.5 3h-10l29 96h96l-10 -32q33 -12 58.5 -26t37.5 -32q31 -41 31 -92q0 -10 -6 -39.5t-31 -61.5t-75 -56.5t-138 -24.5h-27.5t-33.5 4v98z" />
<glyph unicode="&#xb9;" horiz-adv-x="292" d="M104 614v825h83v-825h-83z" />
<glyph unicode="&#xba;" horiz-adv-x="772" d="M66 1034q0 88 22.5 164t63.5 131t101 86t134 31t133.5 -31t100.5 -86t63.5 -131t22.5 -164t-22.5 -162.5t-63.5 -130t-100.5 -86t-133.5 -30.5t-134 30.5t-101 86t-63.5 130t-22.5 162.5zM141 1034q0 -72 17.5 -133t49.5 -106t77 -70t102 -25q55 0 100 25t77 70 t49.5 106.5t17.5 132.5q0 147 -65.5 241.5t-178.5 94.5q-57 0 -102 -24.5t-77 -69.5t-49.5 -106.5t-17.5 -135.5z" />
<glyph unicode="&#xbb;" horiz-adv-x="1705" d="M145 156v159l539 314q-129 76 -267 153.5t-272 153.5v168l811 -475zM784 158v157l539 314l-539 307v168q72 -45 137.5 -81t135.5 -79q135 -80 265 -156.5t271 -158.5z" />
<glyph unicode="&#xbc;" horiz-adv-x="1060" d="M57 -29l754 1477h76l-756 -1477h-74zM121 711v727h63v-727h-63zM494 225l458 600v-491h80v-109h-80v-245h-106v245h-352zM696 334h150v186z" />
<glyph unicode="&#xbd;" horiz-adv-x="1120" d="M43 -29l754 1477h80l-758 -1477h-76zM106 711v727h66v-727h-66zM618 0q109 117 184 204t121 151.5t65.5 109.5t19.5 80q0 78 -45 119t-97 41q-111 0 -143 -138h-66q8 49 30 86t51.5 61.5t63.5 37t68 12.5q90 0 147.5 -60.5t57.5 -152.5q0 -49 -24.5 -103.5t-65.5 -115 t-98.5 -127t-120.5 -139.5h328v-66h-476z" />
<glyph unicode="&#xbe;" horiz-adv-x="1261" d="M125 883h55q18 -47 58.5 -82t87.5 -35q66 0 108.5 42t42.5 107q0 49 -43 91.5t-98 56.5v59q49 10 83 45t34 82q0 53 -37 90t-90 37q-47 0 -81 -30.5t-44 -77.5h-60q10 74 62.5 121t122.5 47q39 0 72.5 -15.5t59 -41t41 -59.5t15.5 -71q0 -35 -22.5 -77t-57.5 -76 q6 -6 15.5 -16.5t19.5 -16.5q4 -10 14 -10q47 -60 47 -138q0 -43 -16 -81.5t-44 -66.5t-64.5 -44t-79.5 -16q-72 0 -128.5 50t-72.5 126zM250 -27l760 1477h86q-195 -375 -380.5 -738.5t-379.5 -738.5h-86zM694 248q102 135 196.5 257t196.5 253v-449h89v-61h-89v-248h-61 v248h-332zM823 309h203v264z" />
<glyph unicode="&#xbf;" horiz-adv-x="905" d="M82 -129q0 72 26.5 131.5t71.5 108.5t106.5 86t129.5 63v281h147v-373q-70 -14 -130 -43.5t-105 -70.5t-71 -88.5t-26 -94.5q0 -29 8.5 -71.5t34 -81.5t73.5 -66.5t128 -27.5q78 0 134.5 26.5t101.5 67.5q25 -31 47 -55.5t45 -57.5q-70 -57 -156 -91t-172 -34 q-80 0 -151.5 30t-125 82t-85 123.5t-31.5 155.5zM416 785v139h147v-139h-147z" />
<glyph unicode="&#xc0;" horiz-adv-x="1290" d="M12 0l637 1497l637 -1497h-156l-122 291h-715l-125 -291h-156zM354 436h586l-291 694zM520 1847h96q43 -76 80 -139t78 -137l8 -12h-147q-29 74 -57.5 144.5t-57.5 143.5z" />
<glyph unicode="&#xc1;" horiz-adv-x="1290" d="M8 -8q35 86 71 166t71 161q125 293 246.5 581t246.5 585l635 -1493h-154l-127 289h-712l-127 -289h-150zM344 424h592l-293 700q-31 -78 -69.5 -169t-73.5 -167q-16 -39 -37 -84t-41.5 -93t-40 -96t-37.5 -91zM514 1556l98 173v-3l66 119h96l-117 -289h-143z" />
<glyph unicode="&#xc2;" horiz-adv-x="1290" d="M14 0q35 86 71 166t71 162q125 293 246.5 580.5t246.5 584.5l635 -1493h-154l-126 289h-713l-127 -289h-150zM350 432h592l-293 701q-70 -166 -131 -308q-27 -61 -52.5 -121.5t-49 -113.5t-41 -95t-25.5 -63zM432 1554q43 76 82 144.5t82 144.5h109l163 -289h-141 l-80 183l-69 -183h-146z" />
<glyph unicode="&#xc3;" horiz-adv-x="1290" d="M8 -8q35 86 71 166t71 161q125 293 246.5 581t246.5 585l635 -1493h-154l-127 289h-712l-127 -289h-150zM344 424h592l-293 700q-31 -78 -69.5 -169t-73.5 -167q-16 -39 -37 -84t-41.5 -93t-40 -96t-37.5 -91zM352 1573q2 0 2 4q0 33 9.5 65.5t29 58t49 41t70.5 15.5 q29 0 54.5 -11t54.5 -28l18 -8h-2q59 -43 127 -49q8 -2 18.5 -2t21.5 9t19 29.5t11 61.5h81q4 -10 5 -30q0 -78 -47.5 -123t-112.5 -45q-27 0 -55 10q-12 2 -26.5 8t-27.5 14l-24 15h2q-25 16 -55.5 34.5t-69.5 18.5q-33 0 -46.5 -33t-17.5 -69h-86q-4 14 -2 14z" />
<glyph unicode="&#xc4;" horiz-adv-x="1290" d="M8 -8q35 86 71 166t71 161q125 293 246.5 581t246.5 585l635 -1493h-154l-127 289h-712l-127 -289h-150zM344 424h592l-293 700q-31 -78 -69.5 -169t-73.5 -167q-16 -39 -37 -84t-41.5 -93t-40 -96t-37.5 -91zM385 1573v139h147v-139h-147zM764 1573v139h147v-139h-147z " />
<glyph unicode="&#xc5;" horiz-adv-x="1290" d="M8 -8q35 86 71 166t71 161q125 293 246.5 581t246.5 585l635 -1493h-154l-127 289h-712l-127 -289h-150zM344 424h592l-293 700q-31 -78 -69.5 -169t-73.5 -167q-16 -39 -37 -84t-41.5 -93t-40 -96t-37.5 -91zM483 1724q0 33 13.5 63t36 51.5t52 34.5t62.5 13 q68 0 116 -48t48 -114q0 -68 -48 -116.5t-116 -48.5q-33 0 -62.5 13t-52 35.5t-36 52.5t-13.5 64zM547 1724q0 -45 28.5 -74.5t71.5 -29.5t74 29.5t31 74.5q0 41 -31 72t-74 31t-71.5 -31t-28.5 -72z" />
<glyph unicode="&#xc6;" horiz-adv-x="1710" d="M61 2l727 1399l5 -742h-224l-354 -657h-154zM623 795h190v231l-49 12l-64 -108v4zM807 -10v1435h747v-143h-602v-496h498v-131h-498v-522h602v-143h-747z" />
<glyph unicode="&#xc7;" horiz-adv-x="1308" d="M49 729q0 147 56.5 277.5t153.5 226.5t226 152.5t277 56.5q131 0 255 -46t234 -141l-94 -96q-90 63 -190.5 99t-204.5 36q-125 0 -230.5 -44t-183.5 -120.5t-122 -180t-44 -220.5q0 -125 44 -231.5t122 -185.5t183.5 -123t230.5 -44q106 0 205.5 34t189.5 118l94 -96 q-111 -104 -234.5 -153.5t-254.5 -49.5q-147 0 -276.5 56.5t-226.5 154.5t-153.5 232t-56.5 288zM629 -285q43 -6 65 -6q76 0 112 29t36 53q0 31 -16.5 48.5t-38 26.5t-44 12t-35.5 3h-10l29 96h96l-10 -32q33 -12 58.5 -26t37.5 -32q31 -41 31 -92q0 -10 -6 -39.5 t-31 -61.5t-75 -56.5t-138 -24.5h-27.5t-33.5 4v98z" />
<glyph unicode="&#xc8;" horiz-adv-x="968" d="M57 -10h748v143h-602v522h497v131h-497v496h602v143h-748v-1435zM358 1847h101q43 -78 81 -145.5t78 -142.5h-143z" />
<glyph unicode="&#xc9;" horiz-adv-x="968" d="M57 -10v1435h748v-143h-602v-496h497v-131h-497v-522h602v-143h-748zM360 1559l99 172v-2l65 118h97l-115 -288h-146z" />
<glyph unicode="&#xca;" horiz-adv-x="968" d="M57 -10v1435h748v-143h-602v-496h497v-131h-497v-522h602v-143h-748zM272 1559q45 76 83 144.5t83 143.5h107l162 -288h-146l-74 180l-47 -129h2l-14 -29l-10 -22h-146z" />
<glyph unicode="&#xcb;" horiz-adv-x="968" d="M57 -10v1435h748v-143h-602v-496h497v-131h-497v-522h602v-143h-748zM188 1573v139h146v-139h-146zM567 1573v139h146v-139h-146z" />
<glyph unicode="&#xcc;" horiz-adv-x="311" d="M31 1860h98q41 -72 82 -146t82 -145h-145zM78 0v1434h145v-1434h-145z" />
<glyph unicode="&#xcd;" horiz-adv-x="311" d="M31 1569q20 39 36.5 65.5t34.5 61.5l92 164h101l-119 -291h-145zM78 0v1434h145v-1434h-145z" />
<glyph unicode="&#xce;" horiz-adv-x="311" d="M-58 1569q23 39 38.5 65.5t33.5 61.5l92 164h111l166 -291h-150l-74 182q-16 -37 -35.5 -89t-35.5 -93h-146zM78 0v1434h145v-1434h-145z" />
<glyph unicode="&#xcf;" horiz-adv-x="311" d="M-101 1571v141h148v-141h-148zM78 0v1434h145v-1434h-145zM280 1571v141h148v-141h-148z" />
<glyph unicode="&#xd0;" horiz-adv-x="1490" d="M61 625v143h570v-143h-570zM272 0v1434h400q68 0 151.5 -10.5t168.5 -39t165 -79t142.5 -131t100.5 -195.5t38 -272q0 -166 -46 -284t-119 -197t-163 -124t-177 -67.5t-163 -28.5t-119 -6h-379zM420 135h231q143 0 260 41t199 116t126 180.5t44 234.5q0 137 -41 246.5 t-120 186.5t-191.5 117.5t-255.5 40.5h-252v-1163z" />
<glyph unicode="&#xd1;" horiz-adv-x="1165" d="M80 -10v1495l944 -1155v1093h129v-1486l-940 1167v-1114h-133zM307 1570.5q2 0.5 2 4.5q0 33 9.5 65.5t28 58t48 41t72.5 15.5q27 0 54.5 -11t56.5 -28l16 -8h-2q29 -18 63.5 -31.5t63.5 -17.5q8 -2 18.5 -2t20.5 9t18 29.5t10 61.5h80l6 -6q2 -6 2 -13v-12 q0 -78 -47 -122.5t-112 -44.5q-29 0 -56 8q-14 4 -31.5 12t-31.5 18h2l-8 7l-6 2q-29 18 -58.5 35.5t-64.5 17.5t-49.5 -32t-18.5 -71h-84q-4 14 -2 14.5z" />
<glyph unicode="&#xd2;" horiz-adv-x="1550" d="M51 717q0 154 55 287t153.5 230t230.5 152.5t286 55.5q145 0 277 -55.5t231.5 -152.5t159 -230.5t59.5 -286.5q0 -147 -59.5 -278.5t-159 -229.5t-231.5 -156.5t-277 -58.5q-154 0 -286 58.5t-230.5 156.5t-153.5 229t-55 279zM200 717q0 -117 44 -221.5t121 -183.5 t182.5 -126t228.5 -47q117 0 221.5 47t184 126t125.5 183.5t46 221.5q0 125 -47 230.5t-127 183t-184 121.5t-219 44q-123 0 -228.5 -44t-182.5 -121.5t-121 -183t-44 -230.5zM647 1860h98q41 -72 82 -146t82 -145h-145z" />
<glyph unicode="&#xd3;" horiz-adv-x="1550" d="M51 717q0 154 55 287t153.5 230t230.5 152.5t286 55.5q145 0 277 -55.5t231.5 -152.5t159 -230.5t59.5 -286.5q0 -147 -59.5 -278.5t-159 -229.5t-231.5 -156.5t-277 -58.5q-154 0 -286 58.5t-230.5 156.5t-153.5 229t-55 279zM200 717q0 -117 44 -221.5t121 -183.5 t182.5 -126t228.5 -47q117 0 221.5 47t184 126t125.5 183.5t46 221.5q0 125 -47 230.5t-127 183t-184 121.5t-219 44q-123 0 -228.5 -44t-182.5 -121.5t-121 -183t-44 -230.5zM648 1569q20 39 36.5 65.5t34.5 61.5l92 164h101l-119 -291h-145z" />
<glyph unicode="&#xd4;" horiz-adv-x="1550" d="M51 717q0 154 55 287t153.5 230t230.5 152.5t286 55.5q145 0 277 -55.5t231.5 -152.5t159 -230.5t59.5 -286.5q0 -147 -59.5 -278.5t-159 -229.5t-231.5 -156.5t-277 -58.5q-154 0 -286 58.5t-230.5 156.5t-153.5 229t-55 279zM200 717q0 -117 44 -221.5t121 -183.5 t182.5 -126t228.5 -47q117 0 221.5 47t184 126t125.5 183.5t46 221.5q0 125 -47 230.5t-127 183t-184 121.5t-219 44q-123 0 -228.5 -44t-182.5 -121.5t-121 -183t-44 -230.5zM559 1569q23 39 38.5 65.5t33.5 61.5l92 164h111l166 -291h-150l-74 182q-16 -37 -35.5 -89 t-35.5 -93h-146z" />
<glyph unicode="&#xd5;" horiz-adv-x="1550" d="M51 717q0 154 55 287t153.5 230t230.5 152.5t286 55.5q145 0 277 -55.5t231.5 -152.5t159 -230.5t59.5 -286.5q0 -147 -59.5 -278.5t-159 -229.5t-231.5 -156.5t-277 -58.5q-154 0 -286 58.5t-230.5 156.5t-153.5 229t-55 279zM200 717q0 -117 44 -221.5t121 -183.5 t182.5 -126t228.5 -47q117 0 221.5 47t184 126t125.5 183.5t46 221.5q0 125 -47 230.5t-127 183t-184 121.5t-219 44q-123 0 -228.5 -44t-182.5 -121.5t-121 -183t-44 -230.5zM492 1580q1 1 1 5q0 33 9.5 65.5t29 59.5t49 42t72.5 15q29 0 60.5 -15t62.5 -32 q29 -16 64.5 -31.5t64.5 -19.5q8 -2 18.5 0t20.5 11.5t18 31t10 57.5h87l2 -4q2 -6 2 -13v-11q0 -78 -48.5 -124t-113.5 -46q-10 0 -26.5 2t-35.5 6q-12 4 -29.5 14.5t-33.5 24.5q-31 18 -60.5 34.5t-68.5 16.5t-51.5 -30.5t-16.5 -69.5h-86q-2 10 -1 11z" />
<glyph unicode="&#xd6;" horiz-adv-x="1550" d="M51 717q0 154 55 287t153.5 230t230.5 152.5t286 55.5q145 0 277 -55.5t231.5 -152.5t159 -230.5t59.5 -286.5q0 -147 -59.5 -278.5t-159 -229.5t-231.5 -156.5t-277 -58.5q-154 0 -286 58.5t-230.5 156.5t-153.5 229t-55 279zM200 717q0 -117 44 -221.5t121 -183.5 t182.5 -126t228.5 -47q117 0 221.5 47t184 126t125.5 183.5t46 221.5q0 125 -47 230.5t-127 183t-184 121.5t-219 44q-123 0 -228.5 -44t-182.5 -121.5t-121 -183t-44 -230.5zM516 1571v141h148v-141h-148zM897 1571v141h148v-141h-148z" />
<glyph unicode="&#xd7;" horiz-adv-x="1052" d="M119 715l315 317l-315 320l90 92l319 -316l318 316l94 -92l-317 -320l317 -317l-94 -92l-318 315l-319 -315z" />
<glyph unicode="&#xd8;" horiz-adv-x="1550" d="M57 717q0 154 55.5 287t152.5 230t229.5 152.5t285.5 55.5q33 0 73 -3t85 -12l35 119v-2q8 27 16 47h152l-70 -209q96 -47 176 -115.5t138.5 -154.5t90 -186.5t31.5 -208.5q0 -147 -59 -278.5t-158.5 -229.5t-231.5 -156.5t-278 -58.5q-35 0 -72.5 3t-80.5 11 q-10 -35 -24.5 -80t-27.5 -82h-151l68 209q-98 47 -179.5 117t-137.5 156t-87 184t-31 205zM205 717q0 -160 89 -298t241 -229q41 131 88 274.5t88 272.5q14 41 29.5 84t29.5 86l125 379q-47 8 -69.5 9t-45.5 1q-123 0 -228.5 -44t-182 -121.5t-120.5 -183t-44 -230.5z M670 150q33 -4 66.5 -7.5t43.5 -3.5q117 0 221.5 47t184.5 126t126 183.5t46 221.5q0 174 -89 310t-239 214l-178 -547q-16 -55 -34.5 -109.5t-39.5 -113.5z" />
<glyph unicode="&#xd9;" horiz-adv-x="1124" d="M61 506v928h146v-928q0 -84 28.5 -157t77.5 -126t114 -82.5t138 -29.5q74 0 139.5 29.5t113.5 82.5t77 126t29 157v928h143v-928q0 -104 -39 -198.5t-106.5 -165t-158.5 -111.5t-198 -41q-104 0 -196.5 41t-161 111.5t-107.5 163.5t-39 200zM434 1860h98q41 -72 82 -146 t82 -145h-145z" />
<glyph unicode="&#xda;" horiz-adv-x="1124" d="M61 506v928h146v-928q0 -84 28.5 -157t77.5 -126t114 -82.5t138 -29.5q74 0 139.5 29.5t113.5 82.5t77 126t29 157v928h143v-928q0 -104 -39 -198.5t-106.5 -165t-158.5 -111.5t-198 -41q-104 0 -196.5 41t-161 111.5t-107.5 163.5t-39 200zM435 1567q20 39 36.5 65.5 t34.5 61.5l92 164h101l-119 -291h-145z" />
<glyph unicode="&#xdb;" horiz-adv-x="1124" d="M61 506v928h146v-928q0 -84 28.5 -157t77.5 -126t114 -82.5t138 -29.5q74 0 139.5 29.5t113.5 82.5t77 126t29 157v928h143v-928q0 -104 -39 -198.5t-106.5 -165t-158.5 -111.5t-198 -41q-104 0 -196.5 41t-161 111.5t-107.5 163.5t-39 200zM346 1569q23 39 38.5 65.5 t33.5 61.5l92 164h111l166 -291h-150l-74 182q-16 -37 -35.5 -89t-35.5 -93h-146z" />
<glyph unicode="&#xdc;" horiz-adv-x="1124" d="M61 506v928h146v-928q0 -84 28.5 -157t77.5 -126t114 -82.5t138 -29.5q74 0 139.5 29.5t113.5 82.5t77 126t29 157v928h143v-928q0 -104 -39 -198.5t-106.5 -165t-158.5 -111.5t-198 -41q-104 0 -196.5 41t-161 111.5t-107.5 163.5t-39 200zM303 1571v141h148v-141h-148z M684 1571v141h148v-141h-148z" />
<glyph unicode="&#xdd;" horiz-adv-x="1316" d="M49 1434h177l436 -574q47 63 102 138t109 143l53 71q41 57 85 110.5t85 111.5h178l-518 -686l-23 -29v-719h-145v719l-109 143q-72 96 -143.5 189.5t-142.5 189.5zM531 1567q20 39 36.5 65.5t34.5 61.5l92 164h101l-119 -291h-145z" />
<glyph unicode="&#xde;" horiz-adv-x="942" d="M55 0v1442h140v-301h266q80 0 157 -33t136 -92t92 -135t33 -162q0 -84 -34 -160t-91.5 -133t-133 -91t-159.5 -34h-266v-301h-140zM195 438h266q57 0 107 22.5t89 60.5t61.5 89.5t22.5 108.5q0 59 -22.5 111.5t-61.5 90t-89 60.5t-107 23h-266v-566z" />
<glyph unicode="&#xdf;" horiz-adv-x="1005" d="M72 0v1016q0 86 27.5 167t62.5 140q20 20 50 45t70 45.5t88 33.5t105 13q63 0 111.5 -10t84.5 -26.5t61.5 -37t43.5 -40.5q43 -45 64.5 -102.5t21.5 -123.5q0 -74 -39 -147.5t-116 -138.5q43 -25 75.5 -48.5t55.5 -46.5l2 -2q123 -115 123 -311q0 -104 -34 -186 t-90.5 -138.5t-132 -86t-161.5 -29.5q-35 0 -70 5t-76 17v164q76 -47 148 -47q33 0 80 9t91 41t74.5 91.5t30.5 159.5q0 76 -30.5 131t-76.5 92t-99.5 58.5t-100.5 31.5q-78 12 -121 13q-2 41 -5 71.5t-5 71.5q61 2 121.5 15.5t109 40t78 67.5t29.5 102q0 25 -7 58.5 t-33 65.5t-75 54.5t-133 22.5q-262 0 -262 -305v-1016h-141z" />
<glyph unicode="&#xe0;" horiz-adv-x="1095" d="M72 281q0 104 45 176.5t116.5 119t160.5 67t179 20.5q53 0 112.5 -6.5t127.5 -22.5q0 72 -23.5 122t-60.5 80.5t-85 45t-97 14.5q-80 0 -163 -35t-155 -102q-35 53 -50 72.5t-25 35.5q94 78 197.5 118t201.5 40q111 0 188.5 -29.5t126.5 -82t70.5 -124t21.5 -157.5 q0 -70 -5 -139.5t-5 -147.5q0 -57 4.5 -103t18.5 -69q8 -10 18 -16t21 -11q10 -4 22 -4v-143q-98 0 -146 53t-65 158q-18 -33 -51 -71t-80 -69.5t-109.5 -53t-140.5 -21.5q-70 0 -136 16.5t-118.5 51t-84 88t-31.5 129.5zM219 299q0 -25 8 -55.5t32 -59t67.5 -48 t115.5 -19.5q111 0 183.5 40t114.5 96t58.5 114.5t16.5 95.5v53q-47 6 -102.5 13.5t-106.5 7.5q-66 0 -133.5 -11.5t-124.5 -38t-93 -72.5t-36 -116zM420 1555h98q41 -72 82 -146t82 -145h-145z" />
<glyph unicode="&#xe1;" horiz-adv-x="1095" d="M72 281q0 104 45 176.5t116.5 119t160.5 67t179 20.5q53 0 112.5 -6.5t127.5 -22.5q0 72 -23.5 122t-60.5 80.5t-85 45t-97 14.5q-80 0 -163 -35t-155 -102q-35 53 -50 72.5t-25 35.5q94 78 197.5 118t201.5 40q111 0 188.5 -29.5t126.5 -82t70.5 -124t21.5 -157.5 q0 -70 -5 -139.5t-5 -147.5q0 -57 4.5 -103t18.5 -69q8 -10 18 -16t21 -11q10 -4 22 -4v-143q-98 0 -146 53t-65 158q-18 -33 -51 -71t-80 -69.5t-109.5 -53t-140.5 -21.5q-70 0 -136 16.5t-118.5 51t-84 88t-31.5 129.5zM219 299q0 -25 8 -55.5t32 -59t67.5 -48 t115.5 -19.5q111 0 183.5 40t114.5 96t58.5 114.5t16.5 95.5v53q-47 6 -102.5 13.5t-106.5 7.5q-66 0 -133.5 -11.5t-124.5 -38t-93 -72.5t-36 -116zM420 1262q20 39 36.5 65.5t34.5 61.5l92 164h101l-119 -291h-145z" />
<glyph unicode="&#xe2;" horiz-adv-x="1095" d="M72 281q0 104 45 176.5t116.5 119t160.5 67t179 20.5q53 0 112.5 -6.5t127.5 -22.5q0 72 -23.5 122t-60.5 80.5t-85 45t-97 14.5q-80 0 -163 -35t-155 -102q-35 53 -50 72.5t-25 35.5q94 78 197.5 118t201.5 40q111 0 188.5 -29.5t126.5 -82t70.5 -124t21.5 -157.5 q0 -70 -5 -139.5t-5 -147.5q0 -57 4.5 -103t18.5 -69q8 -10 18 -16t21 -11q10 -4 22 -4v-143q-98 0 -146 53t-65 158q-18 -33 -51 -71t-80 -69.5t-109.5 -53t-140.5 -21.5q-70 0 -136 16.5t-118.5 51t-84 88t-31.5 129.5zM219 299q0 -25 8 -55.5t32 -59t67.5 -48 t115.5 -19.5q111 0 183.5 40t114.5 96t58.5 114.5t16.5 95.5v53q-47 6 -102.5 13.5t-106.5 7.5q-66 0 -133.5 -11.5t-124.5 -38t-93 -72.5t-36 -116zM332 1264q23 39 38.5 65.5t33.5 61.5l92 164h111l166 -291h-150l-74 182q-16 -37 -35.5 -89t-35.5 -93h-146z" />
<glyph unicode="&#xe3;" horiz-adv-x="1095" d="M72 281q0 104 45 176.5t116.5 119t160.5 67t179 20.5q53 0 112.5 -6.5t127.5 -22.5q0 72 -23.5 122t-60.5 80.5t-85 45t-97 14.5q-80 0 -163 -35t-155 -102q-35 53 -50 72.5t-25 35.5q94 78 197.5 118t201.5 40q111 0 188.5 -29.5t126.5 -82t70.5 -124t21.5 -157.5 q0 -70 -5 -139.5t-5 -147.5q0 -57 4.5 -103t18.5 -69q8 -10 18 -16t21 -11q10 -4 22 -4v-143q-98 0 -146 53t-65 158q-18 -33 -51 -71t-80 -69.5t-109.5 -53t-140.5 -21.5q-70 0 -136 16.5t-118.5 51t-84 88t-31.5 129.5zM219 299q0 -25 8 -55.5t32 -59t67.5 -48 t115.5 -19.5q111 0 183.5 40t114.5 96t58.5 114.5t16.5 95.5v53q-47 6 -102.5 13.5t-106.5 7.5q-66 0 -133.5 -11.5t-124.5 -38t-93 -72.5t-36 -116zM265 1357q1 1 1 5q0 33 9.5 65.5t29 59.5t49 42t72.5 15q29 0 60.5 -15t62.5 -32q29 -16 64.5 -31.5t64.5 -19.5 q8 -2 18.5 0t20.5 11.5t18 31t10 57.5h87l2 -4q2 -6 2 -13v-11q0 -78 -48.5 -124t-113.5 -46q-10 0 -26.5 2t-35.5 6q-12 4 -29.5 14.5t-33.5 24.5q-31 18 -60.5 34.5t-68.5 16.5t-51.5 -30.5t-16.5 -69.5h-86q-2 10 -1 11z" />
<glyph unicode="&#xe4;" horiz-adv-x="1095" d="M72 281q0 104 45 176.5t116.5 119t160.5 67t179 20.5q53 0 112.5 -6.5t127.5 -22.5q0 72 -23.5 122t-60.5 80.5t-85 45t-97 14.5q-80 0 -163 -35t-155 -102q-35 53 -50 72.5t-25 35.5q94 78 197.5 118t201.5 40q111 0 188.5 -29.5t126.5 -82t70.5 -124t21.5 -157.5 q0 -70 -5 -139.5t-5 -147.5q0 -57 4.5 -103t18.5 -69q8 -10 18 -16t21 -11q10 -4 22 -4v-143q-98 0 -146 53t-65 158q-18 -33 -51 -71t-80 -69.5t-109.5 -53t-140.5 -21.5q-70 0 -136 16.5t-118.5 51t-84 88t-31.5 129.5zM219 299q0 -25 8 -55.5t32 -59t67.5 -48 t115.5 -19.5q111 0 183.5 40t114.5 96t58.5 114.5t16.5 95.5v53q-47 6 -102.5 13.5t-106.5 7.5q-66 0 -133.5 -11.5t-124.5 -38t-93 -72.5t-36 -116zM288 1411v141h148v-141h-148zM669 1411v141h148v-141h-148z" />
<glyph unicode="&#xe5;" horiz-adv-x="1095" d="M72 281q0 104 45 176.5t116.5 119t160.5 67t179 20.5q53 0 112.5 -6.5t127.5 -22.5q0 72 -23.5 122t-60.5 80.5t-85 45t-97 14.5q-80 0 -163 -35t-155 -102q-35 53 -50 72.5t-25 35.5q94 78 197.5 118t201.5 40q111 0 188.5 -29.5t126.5 -82t70.5 -124t21.5 -157.5 q0 -70 -5 -139.5t-5 -147.5q0 -57 4.5 -103t18.5 -69q8 -10 18 -16t21 -11q10 -4 22 -4v-143q-98 0 -146 53t-65 158q-18 -33 -51 -71t-80 -69.5t-109.5 -53t-140.5 -21.5q-70 0 -136 16.5t-118.5 51t-84 88t-31.5 129.5zM219 299q0 -25 8 -55.5t32 -59t67.5 -48 t115.5 -19.5q111 0 183.5 40t114.5 96t58.5 114.5t16.5 95.5v53q-47 6 -102.5 13.5t-106.5 7.5q-66 0 -133.5 -11.5t-124.5 -38t-93 -72.5t-36 -116zM385 1395q0 68 49 117t117 49q33 0 62.5 -13.5t52 -36t36 -53.5t13.5 -63q0 -35 -13.5 -65t-36 -52.5t-52 -35.5t-62.5 -13 q-68 0 -117 49t-49 117zM447 1395q0 -47 28.5 -75t75.5 -28q45 0 72.5 28t27.5 75q0 45 -27.5 73.5t-72.5 28.5q-47 0 -75.5 -28.5t-28.5 -73.5z" />
<glyph unicode="&#xe6;" horiz-adv-x="1910" d="M45 281q0 104 45 176.5t117 119t163 67t181 20.5q51 0 111.5 -6.5t128.5 -22.5q-6 70 -31 120t-60.5 81.5t-81 46t-96.5 14.5q-78 0 -159.5 -36t-153.5 -107q-10 18 -17.5 26t-17.5 23l-45 65q94 78 198.5 118t202.5 40q135 0 227.5 -54t145.5 -147q86 96 196.5 151.5 t241.5 55.5q106 0 196.5 -40t159 -108.5t113.5 -160.5t62 -195h-940q6 -86 39 -159.5t86 -128t125.5 -85t158.5 -30.5q49 0 99.5 16.5t97.5 46t87 70.5t69 90q20 -8 41.5 -14t44.5 -15l49 -18q-82 -141 -202 -225t-286 -84q-154 0 -274.5 70.5t-200.5 189.5 q-41 -59 -69.5 -94t-44.5 -52q-39 -39 -119 -74.5t-215 -35.5q-70 0 -137.5 16.5t-119.5 51t-84 88t-32 129.5zM195 299q0 -25 8 -55.5t32.5 -59t67.5 -48t115 -19.5q113 0 184.5 40t113.5 96t58.5 114.5t16.5 95.5v53q-47 6 -101.5 13.5t-107.5 7.5q-66 0 -133.5 -11.5 t-125 -38t-93 -72.5t-35.5 -116zM965 653h737q-33 55 -76 100.5t-92 78t-100.5 50t-96.5 17.5q-115 0 -212 -67.5t-160 -178.5z" />
<glyph unicode="&#xe7;" horiz-adv-x="944" d="M35 502q0 113 40 210t110.5 168.5t167 111.5t208.5 40q94 0 181 -28.5t173 -94.5l-100 -102q-59 41 -120.5 66.5t-133.5 25.5q-80 0 -151.5 -31.5t-125 -86t-85 -126t-31.5 -153.5q0 -74 31.5 -142.5t85 -121t125 -83t151.5 -30.5q72 0 131.5 23.5t122.5 68.5l100 -102 q-86 -66 -173 -94.5t-181 -28.5q-113 0 -209 40t-166.5 108.5t-110.5 161.5t-40 200zM412 -285q43 -6 65 -6q76 0 112 29t36 53q0 31 -16.5 48.5t-38 26.5t-44 12t-35.5 3h-10l29 96h96l-10 -32q33 -12 58.5 -26t37.5 -32q31 -41 31 -92q0 -10 -6 -39.5t-31 -61.5t-75 -56.5 t-138 -24.5h-27.5t-33.5 4v98z" />
<glyph unicode="&#xe8;" horiz-adv-x="1198" d="M70 504q0 104 30.5 198.5t92 166t153 113.5t211.5 42q109 0 197 -41t151.5 -114.5t98.5 -174t35 -219.5h-826q0 -78 22.5 -144.5t65.5 -115.5t107.5 -76.5t148.5 -27.5q68 0 122.5 20.5t94 48t65.5 55t36 41.5l90 -92q-78 -94 -180.5 -144t-227.5 -50q-121 0 -212 39 t-152.5 107.5t-92 162.5t-30.5 205zM220 596h661q-12 63 -41 118.5t-72 95.5t-97.5 63.5t-117.5 23.5q-72 0 -131 -26.5t-103 -68.5t-69.5 -96.5t-29.5 -109.5zM471 1555h98q41 -72 82 -146t82 -145h-145z" />
<glyph unicode="&#xe9;" horiz-adv-x="1198" d="M70 504q0 104 30.5 198.5t92 166t153 113.5t211.5 42q109 0 197 -41t151.5 -114.5t98.5 -174t35 -219.5h-826q0 -78 22.5 -144.5t65.5 -115.5t107.5 -76.5t148.5 -27.5q68 0 122.5 20.5t94 48t65.5 55t36 41.5l90 -92q-78 -94 -180.5 -144t-227.5 -50q-121 0 -212 39 t-152.5 107.5t-92 162.5t-30.5 205zM220 596h661q-12 63 -41 118.5t-72 95.5t-97.5 63.5t-117.5 23.5q-72 0 -131 -26.5t-103 -68.5t-69.5 -96.5t-29.5 -109.5zM471 1262q20 39 36.5 65.5t34.5 61.5l92 164h101l-119 -291h-145z" />
<glyph unicode="&#xea;" horiz-adv-x="1198" d="M70 504q0 104 30.5 198.5t92 166t153 113.5t211.5 42q109 0 197 -41t151.5 -114.5t98.5 -174t35 -219.5h-826q0 -78 22.5 -144.5t65.5 -115.5t107.5 -76.5t148.5 -27.5q68 0 122.5 20.5t94 48t65.5 55t36 41.5l90 -92q-78 -94 -180.5 -144t-227.5 -50q-121 0 -212 39 t-152.5 107.5t-92 162.5t-30.5 205zM220 596h661q-12 63 -41 118.5t-72 95.5t-97.5 63.5t-117.5 23.5q-72 0 -131 -26.5t-103 -68.5t-69.5 -96.5t-29.5 -109.5zM383 1264q23 39 38.5 65.5t33.5 61.5l92 164h111l166 -291h-150l-74 182q-16 -37 -35.5 -89t-35.5 -93h-146z " />
<glyph unicode="&#xeb;" horiz-adv-x="1198" d="M70 504q0 104 30.5 198.5t92 166t153 113.5t211.5 42q109 0 197 -41t151.5 -114.5t98.5 -174t35 -219.5h-826q0 -78 22.5 -144.5t65.5 -115.5t107.5 -76.5t148.5 -27.5q68 0 122.5 20.5t94 48t65.5 55t36 41.5l90 -92q-78 -94 -180.5 -144t-227.5 -50q-121 0 -212 39 t-152.5 107.5t-92 162.5t-30.5 205zM220 596h661q-12 63 -41 118.5t-72 95.5t-97.5 63.5t-117.5 23.5q-72 0 -131 -26.5t-103 -68.5t-69.5 -96.5t-29.5 -109.5zM284 1298v141h148v-141h-148zM665 1298v141h148v-141h-148z" />
<glyph unicode="&#xec;" horiz-adv-x="382" d="M59 1534h99q41 -72 82 -145.5t82 -145.5h-146zM117 0v1024h147v-1024h-147z" />
<glyph unicode="&#xed;" horiz-adv-x="382" d="M57 1241q20 39 37 65.5t35 61.5l92 164h101l-119 -291h-146zM117 0v1024h147v-1024h-147z" />
<glyph unicode="&#xee;" horiz-adv-x="382" d="M-29 1243q23 39 38.5 65.5t33.5 61.5l92 164h111l166 -291h-150l-74 182q-16 -37 -35.5 -89t-35.5 -93h-146zM117 0v1024h147v-1024h-147z" />
<glyph unicode="&#xef;" horiz-adv-x="382" d="M-74 1196v141h148v-141h-148zM117 0v1024h147v-1024h-147zM307 1196v141h148v-141h-148z" />
<glyph unicode="&#xf0;" horiz-adv-x="1134" d="M68 469q0 98 36.5 185t106.5 157v2q68 70 157 104.5t185 34.5q59 0 129 -20.5t168 -69.5q-61 133 -122.5 231.5t-118 167t-104.5 112.5t-85 69q66 0 113 1t110 1q72 -70 151.5 -183.5t141.5 -254.5q53 -135 85 -262.5t32 -219.5q0 -113 -39 -211t-106.5 -171.5 t-159 -115.5t-195.5 -42q-98 0 -187.5 38.5t-155 104.5t-104 155t-38.5 187zM205 469q0 -72 27.5 -135.5t74.5 -110.5t110.5 -73.5t135.5 -26.5q74 0 137.5 27.5t110.5 74.5t72.5 109.5t25.5 134.5q0 74 -27.5 137.5t-74.5 110.5t-109.5 73.5t-134.5 26.5t-135.5 -27.5 t-110.5 -74.5t-74.5 -110.5t-27.5 -135.5zM354 1196q94 23 180.5 45.5t178.5 48.5q78 23 160.5 42.5t160.5 41.5l31 -121l-676 -176z" />
<glyph unicode="&#xf1;" horiz-adv-x="1003" d="M78 0v1024h147l2 -143q31 43 76 80q37 31 92.5 56t126.5 25q109 0 186.5 -42t128 -112.5t74 -163.5t23.5 -194v-530h-150v535q0 61 -10 126.5t-38.5 119t-80 88t-133.5 34.5q-74 0 -129 -28.5t-92 -79t-56.5 -117t-19.5 -141.5v-537h-147zM218 1357q1 1 1 5 q0 33 9.5 65.5t29 59.5t49 42t72.5 15q29 0 60.5 -15t62.5 -32q29 -16 64.5 -31.5t64.5 -19.5q8 -2 18.5 0t20.5 11.5t18 31t10 57.5h87l2 -4q2 -6 2 -13v-11q0 -78 -48.5 -124t-113.5 -46q-10 0 -26.5 2t-35.5 6q-12 4 -29.5 14.5t-33.5 24.5q-31 18 -60.5 34.5t-68.5 16.5 t-51.5 -30.5t-16.5 -69.5h-86q-2 10 -1 11z" />
<glyph unicode="&#xf2;" horiz-adv-x="1126" d="M45 510q0 104 42 199.5t114 167t166 113.5t198 42t198.5 -42t166.5 -113.5t115 -167t43 -199.5q0 -111 -43 -206t-115 -164.5t-166.5 -108.5t-198.5 -39t-198 39t-166 108.5t-114 164.5t-42 206zM184 510q0 -82 28 -151.5t79 -120t120.5 -79t153.5 -28.5q82 0 152 28.5 t121 79t78.5 120t27.5 151.5q0 76 -27.5 145.5t-77.5 122.5t-120 84t-154 31t-153.5 -31t-120.5 -84t-79 -122.5t-28 -145.5zM434 1555h98q41 -72 82 -146t82 -145h-145z" />
<glyph unicode="&#xf3;" horiz-adv-x="1126" d="M45 510q0 104 42 199.5t114 167t166 113.5t198 42t198.5 -42t166.5 -113.5t115 -167t43 -199.5q0 -111 -43 -206t-115 -164.5t-166.5 -108.5t-198.5 -39t-198 39t-166 108.5t-114 164.5t-42 206zM184 510q0 -82 28 -151.5t79 -120t120.5 -79t153.5 -28.5q82 0 152 28.5 t121 79t78.5 120t27.5 151.5q0 76 -27.5 145.5t-77.5 122.5t-120 84t-154 31t-153.5 -31t-120.5 -84t-79 -122.5t-28 -145.5zM435 1262q20 39 36.5 65.5t34.5 61.5l92 164h101l-119 -291h-145z" />
<glyph unicode="&#xf4;" horiz-adv-x="1126" d="M45 510q0 104 42 199.5t114 167t166 113.5t198 42t198.5 -42t166.5 -113.5t115 -167t43 -199.5q0 -111 -43 -206t-115 -164.5t-166.5 -108.5t-198.5 -39t-198 39t-166 108.5t-114 164.5t-42 206zM184 510q0 -82 28 -151.5t79 -120t120.5 -79t153.5 -28.5q82 0 152 28.5 t121 79t78.5 120t27.5 151.5q0 76 -27.5 145.5t-77.5 122.5t-120 84t-154 31t-153.5 -31t-120.5 -84t-79 -122.5t-28 -145.5zM346 1264q23 39 38.5 65.5t33.5 61.5l92 164h111l166 -291h-150l-74 182q-16 -37 -35.5 -89t-35.5 -93h-146z" />
<glyph unicode="&#xf5;" horiz-adv-x="1126" d="M45 510q0 104 42 199.5t114 167t166 113.5t198 42t198.5 -42t166.5 -113.5t115 -167t43 -199.5q0 -111 -43 -206t-115 -164.5t-166.5 -108.5t-198.5 -39t-198 39t-166 108.5t-114 164.5t-42 206zM184 510q0 -82 28 -151.5t79 -120t120.5 -79t153.5 -28.5q82 0 152 28.5 t121 79t78.5 120t27.5 151.5q0 76 -27.5 145.5t-77.5 122.5t-120 84t-154 31t-153.5 -31t-120.5 -84t-79 -122.5t-28 -145.5zM279 1357q1 1 1 5q0 33 9.5 65.5t29 59.5t49 42t72.5 15q29 0 60.5 -15t62.5 -32q29 -16 64.5 -31.5t64.5 -19.5q8 -2 18.5 0t20.5 11.5t18 31 t10 57.5h87l2 -4q2 -6 2 -13v-11q0 -78 -48.5 -124t-113.5 -46q-10 0 -26.5 2t-35.5 6q-12 4 -29.5 14.5t-33.5 24.5q-31 18 -60.5 34.5t-68.5 16.5t-51.5 -30.5t-16.5 -69.5h-86q-2 10 -1 11z" />
<glyph unicode="&#xf6;" horiz-adv-x="1126" d="M45 510q0 104 42 199.5t114 167t166 113.5t198 42t198.5 -42t166.5 -113.5t115 -167t43 -199.5q0 -111 -43 -206t-115 -164.5t-166.5 -108.5t-198.5 -39t-198 39t-166 108.5t-114 164.5t-42 206zM184 510q0 -82 28 -151.5t79 -120t120.5 -79t153.5 -28.5q82 0 152 28.5 t121 79t78.5 120t27.5 151.5q0 76 -27.5 145.5t-77.5 122.5t-120 84t-154 31t-153.5 -31t-120.5 -84t-79 -122.5t-28 -145.5zM303 1411v141h148v-141h-148zM684 1411v141h148v-141h-148z" />
<glyph unicode="&#xf7;" horiz-adv-x="378" d="M-190 463v143h763v-143h-763zM125 -10v139h149v-139h-149zM125 874v140h149v-140h-149zM125 874v140h149v-140h-149zM125 874v140h149v-140h-149z" />
<glyph unicode="&#xf8;" horiz-adv-x="1126" d="M53 514q0 104 42 198.5t113 166t165 114.5t200 43q6 0 27 -4q8 -2 21 -2l24 70q4 10 6 19t0 7q0 4 4 9h152l-41 -138q74 -41 136.5 -90t101.5 -108q43 -63 67.5 -135t24.5 -150q0 -113 -43 -208t-116 -163.5t-167 -107.5t-197 -39h-42t-52 4q-4 -14 -10 -33.5t-10 -36.5 h-148l35 117q-63 33 -117.5 81t-93.5 108.5t-60.5 130t-21.5 147.5zM195 514q0 -96 48 -182t138 -150l72 244l32 113l105 360q-88 -6 -161 -39t-125 -86t-80.5 -119.5t-28.5 -140.5zM516 135h57q82 0 150 29t121 78h2q51 51 79.5 119.5t28.5 152.5q0 102 -59 196.5 t-164 153.5l-86 -299l-29 -94z" />
<glyph unicode="&#xf9;" d="M121 494v530h152v-535q0 -61 10 -126.5t39 -120t79 -88t132 -33.5q74 0 129 28.5t93 79t56.5 117t18.5 141.5v537h151v-1024h-151l-2 143q-29 -43 -72 -77q-37 -29 -92 -53.5t-131 -24.5q-109 0 -186.5 41t-128 110.5t-74 161.5t-23.5 193zM404 1555h98q41 -72 82 -146 t82 -145h-145z" />
<glyph unicode="&#xfa;" d="M121 494v530h152v-535q0 -61 10 -126.5t39 -120t79 -88t132 -33.5q74 0 129 28.5t93 79t56.5 117t18.5 141.5v537h151v-1024h-151l-2 143q-29 -43 -72 -77q-37 -29 -92 -53.5t-131 -24.5q-109 0 -186.5 41t-128 110.5t-74 161.5t-23.5 193zM404 1262q20 39 36.5 65.5 t34.5 61.5l92 164h101l-119 -291h-145z" />
<glyph unicode="&#xfb;" d="M121 494v530h152v-535q0 -61 10 -126.5t39 -120t79 -88t132 -33.5q74 0 129 28.5t93 79t56.5 117t18.5 141.5v537h151v-1024h-151l-2 143q-29 -43 -72 -77q-37 -29 -92 -53.5t-131 -24.5q-109 0 -186.5 41t-128 110.5t-74 161.5t-23.5 193zM315 1264q23 39 38.5 65.5 t33.5 61.5l92 164h111l166 -291h-150l-74 182q-16 -37 -35.5 -89t-35.5 -93h-146z" />
<glyph unicode="&#xfc;" d="M121 494v530h152v-535q0 -61 10 -126.5t39 -120t79 -88t132 -33.5q74 0 129 28.5t93 79t56.5 117t18.5 141.5v537h151v-1024h-151l-2 143q-29 -43 -72 -77q-37 -29 -92 -53.5t-131 -24.5q-109 0 -186.5 41t-128 110.5t-74 161.5t-23.5 193zM272 1413v141h148v-141h-148z M653 1413v141h148v-141h-148z" />
<glyph unicode="&#xfd;" horiz-adv-x="1009" d="M-35 1024h174l371 -606l51 94q23 43 45.5 85t42.5 77q47 82 91 167t87 167v-2l10 18h172l-833 -1548h-178l426 790q-117 190 -229.5 377.5t-229.5 380.5zM377 1262q20 39 36.5 65.5t34.5 61.5l92 164h101l-119 -291h-145z" />
<glyph unicode="&#xfe;" horiz-adv-x="987" d="M92 -522v1964h139v-418h166q106 0 198.5 -37t164.5 -113l2 -2q74 -72 110.5 -165t36.5 -197q0 -109 -41 -202t-111.5 -162.5t-162.5 -109.5t-197 -40h-166v-518h-139zM231 133h166q80 0 148.5 30t119 81t80 119.5t29.5 146.5q0 80 -29.5 148.5t-80 118.5t-119 80 t-148.5 30h-166v-754z" />
<glyph unicode="&#xff;" horiz-adv-x="1009" d="M-35 1024h174l371 -606l51 94q23 43 45.5 85t42.5 77q47 82 91 167t87 167v-2l10 18h172l-833 -1548h-178l426 790q-117 190 -229.5 377.5t-229.5 380.5zM245 1413v141h148v-141h-148zM626 1413v141h148v-141h-148z" />
<glyph unicode="&#x152;" horiz-adv-x="1732" d="M63 717q0 154 55.5 285t154 227t230.5 150.5t285 54.5h861v-144h-707v-493h604v-131h-604v-523h707v-143h-861q-154 0 -285.5 57.5t-230 154.5t-154 227t-55.5 278zM209 717q0 -115 44 -217.5t123 -180t186.5 -125t236.5 -49.5v1143q-129 -2 -236.5 -46t-186.5 -121 t-123 -180t-44 -224z" />
<glyph unicode="&#x153;" horiz-adv-x="1898" d="M18 510q0 104 42 199.5t114 167t166 113.5t199 42q131 0 248.5 -70.5t193.5 -181.5q61 109 166.5 176.5t259.5 67.5q109 0 198 -41t152.5 -114.5t98 -174t34.5 -219.5h-825q0 -78 22.5 -144.5t65.5 -115.5t106.5 -76.5t147.5 -27.5q68 0 122 20.5t94 48t65.5 55 t35.5 41.5q25 -25 46.5 -47t44.5 -45q-78 -94 -179.5 -144t-228.5 -50q-156 0 -262.5 63.5t-167.5 175.5q-76 -111 -192.5 -174t-245.5 -63q-104 0 -198.5 39t-166.5 108.5t-114 164.5t-42 206zM158 510q0 -82 27.5 -151.5t78.5 -120t121 -79t154 -28.5q82 0 151.5 28.5 t120.5 79t79 120t28 151.5q0 76 -28 145.5t-78 122.5t-119.5 84t-153.5 31t-154 -31t-121 -84t-78.5 -122.5t-27.5 -145.5zM1071 596h660q-10 63 -39 118.5t-72 95.5t-98.5 63.5t-118.5 23.5q-72 0 -131.5 -26.5t-102.5 -68.5t-68.5 -96.5t-29.5 -109.5z" />
<glyph unicode="&#x178;" horiz-adv-x="1316" d="M43 1423h176l436 -573q47 63 102.5 138t108.5 142l54 72q41 57 85 110.5t85 110.5h178l-518 -686l-23 -28v-719h-145v719l-109 143q-72 96 -143.5 189.5t-143.5 189.5zM397 1573v139h150v-139h-150zM776 1573v139h148v-139h-148z" />
<glyph unicode="&#x2c6;" horiz-adv-x="626" d="M96 1569q23 39 38.5 65.5t33.5 61.5l92 164h111l166 -291h-150l-74 182q-16 -37 -35.5 -89t-35.5 -93h-146z" />
<glyph unicode="&#x2dc;" horiz-adv-x="737" d="M95 1580q1 1 1 5q0 33 9.5 65.5t29 59.5t49 42t72.5 15q29 0 60.5 -15t62.5 -32q29 -16 64.5 -31.5t64.5 -19.5q8 -2 18.5 0t20.5 11.5t18 31t10 57.5h87l2 -4q2 -6 2 -13v-11q0 -78 -48.5 -124t-113.5 -46q-10 0 -26.5 2t-35.5 6q-12 4 -29.5 14.5t-33.5 24.5 q-31 18 -60.5 34.5t-68.5 16.5t-51.5 -30.5t-16.5 -69.5h-86q-2 10 -1 11z" />
<glyph unicode="&#x2000;" horiz-adv-x="943" />
<glyph unicode="&#x2001;" horiz-adv-x="1886" />
<glyph unicode="&#x2002;" horiz-adv-x="943" />
<glyph unicode="&#x2003;" horiz-adv-x="1886" />
<glyph unicode="&#x2004;" horiz-adv-x="628" />
<glyph unicode="&#x2005;" horiz-adv-x="471" />
<glyph unicode="&#x2006;" horiz-adv-x="314" />
<glyph unicode="&#x2007;" horiz-adv-x="314" />
<glyph unicode="&#x2008;" horiz-adv-x="235" />
<glyph unicode="&#x2009;" horiz-adv-x="377" />
<glyph unicode="&#x200a;" horiz-adv-x="104" />
<glyph unicode="&#x2010;" horiz-adv-x="753" d="M94 451v145h576v-145h-576z" />
<glyph unicode="&#x2011;" horiz-adv-x="753" d="M94 451v145h576v-145h-576z" />
<glyph unicode="&#x2012;" horiz-adv-x="753" d="M94 451v145h576v-145h-576z" />
<glyph unicode="&#x2013;" horiz-adv-x="837" d="M96 463v143h635v-143h-635z" />
<glyph unicode="&#x2014;" horiz-adv-x="1083" d="M94 463v143h907v-143h-907z" />
<glyph unicode="&#x2018;" horiz-adv-x="251" d="M-55 1346q20 39 36.5 65.5t34.5 58.5l93 166h100l-121 -290h-143z" />
<glyph unicode="&#x2019;" horiz-adv-x="260" d="M-55 1636h98l166 -290h-148z" />
<glyph unicode="&#x201a;" horiz-adv-x="296" d="M-33 -176l115 291h147q-45 -76 -82.5 -145.5t-83.5 -145.5h-96z" />
<glyph unicode="&#x201c;" horiz-adv-x="503" d="M-57 1346q23 39 38 65.5t33 58.5l92 166h99l-117 -290h-145zM186 1346q43 76 82 145.5t82 144.5h99l-117 -290h-146z" />
<glyph unicode="&#x201d;" horiz-adv-x="471" d="M-55 1636h96q41 -72 83 -145.5t81 -144.5h-144zM186 1636h99l98 -174l63 -116h-143z" />
<glyph unicode="&#x201e;" horiz-adv-x="552" d="M2 289h100l162 -289h-143zM246 289h96l168 -289h-148z" />
<glyph unicode="&#x2022;" horiz-adv-x="507" d="M145 526q0 47 33 80t80 33t79 -33t32 -80t-32 -78.5t-79 -31.5t-80 31.5t-33 78.5z" />
<glyph unicode="&#x2026;" horiz-adv-x="835" d="M63 0v139h146v-139h-146zM348 0v139h148v-139h-148zM633 0v139h147v-139h-147z" />
<glyph unicode="&#x202f;" horiz-adv-x="377" />
<glyph unicode="&#x2039;" d="M117 629q106 63 206.5 121.5t199 116t197.5 115.5t206 122v-168l-537 -307l166 -97h-2l373 -217v-157z" />
<glyph unicode="&#x203a;" d="M150 156v159l538 314q-131 76 -269 153.5t-269 153.5v168l811 -475z" />
<glyph unicode="&#x205f;" horiz-adv-x="471" />
<glyph unicode="&#x20ac;" horiz-adv-x="1120" d="M61 557v117h70v82v45q0 16 2 35h-72v116h91q55 236 191 367t325 131q98 0 194 -38t182 -109h-4l7 -5q-25 -23 -45.5 -45t-43.5 -45l-4 2q-61 47 -133.5 72t-152.5 25q-117 0 -217.5 -90.5t-155.5 -264.5h477v-116l-504 -5q-4 -33 -4 -53v-43v-10v-14.5t2 -16.5 q0 -8 2 -20h504v-117h-496q29 -96 71 -174t92 -133t108.5 -85t120.5 -30q76 0 147.5 32t132.5 87l6 8l11 -12h-2l88 -84l-7 -6q-80 -76 -176 -119t-200 -43t-191.5 41t-155 115.5t-113.5 177t-67 225.5h-80z" />
<glyph unicode="&#x2122;" horiz-adv-x="1392" d="M86 1348v94h451v-94h-179v-648h-96v648h-176zM664 700v742l319 -330l326 326v-738h-103v498l-223 -229l-221 227v-496h-98z" />
<glyph unicode="&#x25fc;" horiz-adv-x="1024" d="M0 0v1024h1024v-1024h-1024z" />
</font>
</defs>
</svg>
